<svg width="17" height="17" viewBox="0 0 17 17" fill="none" xmlns="http://www.w3.org/2000/svg">
<path d="M9.91667 6.5875V8.64167H11.7583C11.9 8.64167 11.9708 8.78333 11.9708 8.925L11.6875 10.2708C11.6875 10.3417 11.5458 10.4125 11.475 10.4125H9.91667V15.5833H7.79167V10.4833H6.5875C6.44583 10.4833 6.375 10.4125 6.375 10.2708V8.925C6.375 8.78333 6.44583 8.7125 6.5875 8.7125H7.79167V6.375C7.79167 5.17083 8.7125 4.25 9.91667 4.25H11.8292C11.9708 4.25 12.0417 4.32083 12.0417 4.4625V6.1625C12.0417 6.30417 11.9708 6.375 11.8292 6.375H10.1292C9.9875 6.375 9.91667 6.44583 9.91667 6.5875Z" stroke="#434141" stroke-width="1.5" stroke-miterlimit="10" stroke-linecap="round"/>
<path d="M10.6253 15.5834H6.37533C2.83366 15.5834 1.41699 14.1667 1.41699 10.6251V6.37508C1.41699 2.83341 2.83366 1.41675 6.37533 1.41675H10.6253C14.167 1.41675 15.5837 2.83341 15.5837 6.37508V10.6251C15.5837 14.1667 14.167 15.5834 10.6253 15.5834Z" stroke="#434141" stroke-width="1.5" stroke-linecap="round" stroke-linejoin="round"/>
</svg>
