<svg width="17" height="17" viewBox="0 0 17 17" fill="none" xmlns="http://www.w3.org/2000/svg">
<path d="M6.37533 15.5834H10.6253C14.167 15.5834 15.5837 14.1667 15.5837 10.6251V6.37508C15.5837 2.83341 14.167 1.41675 10.6253 1.41675H6.37533C2.83366 1.41675 1.41699 2.83341 1.41699 6.37508V10.6251C1.41699 14.1667 2.83366 15.5834 6.37533 15.5834Z" stroke="#434141" stroke-width="1.5" stroke-linecap="round" stroke-linejoin="round"/>
<path d="M8.49967 10.9791C9.86888 10.9791 10.9788 9.86912 10.9788 8.49992C10.9788 7.13071 9.86888 6.02075 8.49967 6.02075C7.13047 6.02075 6.02051 7.13071 6.02051 8.49992C6.02051 9.86912 7.13047 10.9791 8.49967 10.9791Z" stroke="#434141" stroke-width="1.5" stroke-linecap="round" stroke-linejoin="round"/>
<path d="M12.4926 4.95841H12.5008" stroke="#434141" stroke-width="2" stroke-linecap="round" stroke-linejoin="round"/>
</svg>
