<svg width="154" height="34" viewBox="0 0 154 34" fill="none" xmlns="http://www.w3.org/2000/svg">
<mask id="path-1-outside-1_689_1205" maskUnits="userSpaceOnUse" x="-0.0312742" y="-0.440343" width="154.119" height="34.0263" fill="black">
<rect fill="white" x="-0.0312742" y="-0.440343" width="154.119" height="34.0263"/>
<path d="M17.0532 31.1841C14.2243 31.1841 11.6624 30.5703 9.36725 29.3427C7.09883 28.1151 5.29743 26.4071 3.96307 24.2187C2.65539 22.0037 2.00155 19.4684 2.00155 16.6128C2.00155 13.7573 2.65539 11.222 3.96307 9.00696C5.29743 6.79192 7.09883 5.07059 9.36725 3.84297C11.6624 2.61535 14.2243 2.00154 17.0532 2.00154C19.8554 2.00154 22.3907 2.61535 24.6591 3.84297C26.9542 5.07059 28.7556 6.79192 30.0633 9.00696C31.3709 11.222 32.0248 13.7573 32.0248 16.6128C32.0248 19.4684 31.3709 22.0037 30.0633 24.2187C28.7556 26.4071 26.9542 28.1151 24.6591 29.3427C22.3907 30.5703 19.8554 31.1841 17.0532 31.1841ZM17.0532 24.539C18.4676 24.539 19.762 24.2187 20.9362 23.5782C22.1104 22.9377 23.0445 22.017 23.7384 20.8161C24.4322 19.6152 24.7792 18.2141 24.7792 16.6128C24.7792 15.0116 24.4322 13.6239 23.7384 12.4496C23.0712 11.2487 22.1505 10.328 20.9762 9.68749C19.802 9.02031 18.4943 8.68672 17.0532 8.68672C15.5854 8.68672 14.2644 9.02031 13.0901 9.68749C11.9159 10.328 10.9818 11.2487 10.288 12.4496C9.62078 13.6239 9.28719 15.0116 9.28719 16.6128C9.28719 18.2141 9.62078 19.6152 10.288 20.8161C10.9818 22.017 11.9159 22.9377 13.0901 23.5782C14.2911 24.2187 15.6121 24.539 17.0532 24.539ZM34.8191 2.60201H54.6745V8.56662H41.9046V13.8107H51.2318V19.375H41.9046V30.5837H34.8191V2.60201ZM56.672 2.60201H76.5273V8.56662H63.7575V13.8107H73.0847V19.375H63.7575V24.619H76.5273V30.5837H56.672V2.60201ZM79.3458 2.60201H91.9155C95.198 2.60201 97.76 3.42932 99.6014 5.08393C101.47 6.73854 102.404 9.11371 102.404 12.2094C102.404 14.2911 101.95 16.0658 101.043 17.5336C100.135 19.0014 98.8542 20.0955 97.1996 20.8161L102.163 30.5837H94.8778L90.4343 21.8169H86.4312V30.5837H79.3458V2.60201ZM90.6745 15.8523C92.089 15.8523 93.1831 15.5854 93.9571 15.0516C94.731 14.4912 95.118 13.5438 95.118 12.2094C95.118 10.8217 94.731 9.8743 93.9571 9.36724C93.2098 8.8335 92.1156 8.56662 90.6745 8.56662H86.4312V15.8523H90.6745ZM110.303 8.56662H102.417V2.60201H125.314V8.56662H117.388V30.5837H110.303V8.56662ZM132.912 2.60201H139.878L151.046 30.5837H143.801L141.559 24.8192H131.231L128.989 30.5837H121.704L132.912 2.60201ZM139.798 19.375L136.395 9.96771L132.952 19.375H139.798Z"/>
</mask>
<path d="M9.36725 29.3427L8.4146 31.103L8.42321 31.1076L9.36725 29.3427ZM3.96307 24.2187L2.23947 25.2363L2.24672 25.2486L2.25415 25.2608L3.96307 24.2187ZM3.96307 9.00696L2.24858 7.97414L2.24399 7.98176L2.23947 7.98942L3.96307 9.00696ZM9.36725 3.84297L8.4232 2.07801L8.41461 2.08266L9.36725 3.84297ZM24.6591 3.84297L23.7064 5.6033L23.715 5.6079L24.6591 3.84297ZM30.0633 9.00696L28.3397 10.0245L30.0633 9.00696ZM30.0633 24.2187L31.7814 25.2455L31.7869 25.2363L30.0633 24.2187ZM24.6591 29.3427L23.715 27.5777L23.7064 27.5824L24.6591 29.3427ZM20.9362 23.5782L19.9778 21.8211L20.9362 23.5782ZM23.7384 20.8161L22.0053 19.8148H22.0053L23.7384 20.8161ZM23.7384 12.4496L21.9887 13.4217L22.0016 13.4449L22.0152 13.4679L23.7384 12.4496ZM20.9762 9.68749L19.9874 11.4278L20.0025 11.4363L20.0178 11.4446L20.9762 9.68749ZM13.0901 9.68749L14.0486 11.4446L14.0638 11.4363L14.0789 11.4278L13.0901 9.68749ZM10.288 12.4496L8.55489 11.4483L8.55127 11.4546L8.5477 11.4608L10.288 12.4496ZM10.288 20.8161L8.53829 21.7881L8.54647 21.8029L8.55489 21.8174L10.288 20.8161ZM13.0901 23.5782L12.1317 25.3354L12.1399 25.3399L12.1482 25.3443L13.0901 23.5782ZM17.0532 31.1841V29.1826C14.5244 29.1826 12.2912 28.6368 10.3113 27.5778L9.36725 29.3427L8.42321 31.1076C11.0335 32.5038 13.9243 33.1857 17.0532 33.1857V31.1841ZM9.36725 29.3427L10.3199 27.5824C8.36053 26.522 6.82094 25.061 5.67198 23.1767L3.96307 24.2187L2.25415 25.2608C3.77392 27.7532 5.83712 29.7081 8.41461 31.103L9.36725 29.3427ZM3.96307 24.2187L5.68667 23.2012C4.58048 21.3274 4.0031 19.1509 4.0031 16.6129H2.00155H0C0 19.7859 0.730296 22.6799 2.23947 25.2363L3.96307 24.2187ZM2.00155 16.6129H4.0031C4.0031 14.0748 4.58048 11.8983 5.68667 10.0245L3.96307 9.00696L2.23947 7.98942C0.730296 10.5458 0 13.4398 0 16.6129H2.00155ZM3.96307 9.00696L5.67755 10.0398C6.82798 8.13008 8.36666 6.66031 10.3199 5.60328L9.36725 3.84297L8.41461 2.08266C5.83099 3.48086 3.76688 5.45375 2.24858 7.97414L3.96307 9.00696ZM9.36725 3.84297L10.3113 5.6079C12.2912 4.54888 14.5244 4.00309 17.0532 4.00309V2.00154V-3.81765e-06C13.9243 -3.81765e-06 11.0335 0.681825 8.42321 2.07804L9.36725 3.84297ZM17.0532 2.00154V4.00309C19.5522 4.00309 21.7554 4.54744 23.7064 5.60328L24.6591 3.84297L25.6117 2.08266C23.0259 0.68326 20.1586 -3.81765e-06 17.0532 -3.81765e-06V2.00154ZM24.6591 3.84297L23.715 5.6079C25.6908 6.66469 27.2208 8.12925 28.3397 10.0245L30.0633 9.00696L31.7869 7.98942C30.2904 5.45458 28.2176 3.47648 25.6031 2.07804L24.6591 3.84297ZM30.0633 9.00696L28.3397 10.0245C29.4458 11.8983 30.0232 14.0748 30.0232 16.6129H32.0248H34.0263C34.0263 13.4398 33.296 10.5458 31.7869 7.98942L30.0633 9.00696ZM32.0248 16.6129H30.0232C30.0232 19.1509 29.4458 21.3274 28.3397 23.2012L30.0633 24.2187L31.7869 25.2363C33.296 22.6799 34.0263 19.7859 34.0263 16.6129H32.0248ZM30.0633 24.2187L28.3451 23.192C27.2278 25.0618 25.697 26.5177 23.715 27.5778L24.6591 29.3427L25.6031 31.1076C28.2114 29.7125 30.2834 27.7524 31.7814 25.2454L30.0633 24.2187ZM24.6591 29.3427L23.7064 27.5824C21.7554 28.6382 19.5522 29.1826 17.0532 29.1826V31.1841V33.1857C20.1586 33.1857 23.0259 32.5024 25.6117 31.103L24.6591 29.3427ZM17.0532 24.539V26.5405C18.7826 26.5405 20.4094 26.1455 21.8946 25.3354L20.9362 23.5782L19.9778 21.8211C19.1145 22.292 18.1526 22.5374 17.0532 22.5374V24.539ZM20.9362 23.5782L21.8946 25.3354C23.4039 24.5122 24.6008 23.3243 25.4714 21.8174L23.7384 20.8161L22.0053 19.8148C21.4882 20.7097 20.817 21.3633 19.9778 21.8211L20.9362 23.5782ZM23.7384 20.8161L25.4714 21.8174C26.3668 20.2678 26.7807 18.5106 26.7807 16.6129H24.7792H22.7776C22.7776 17.9175 22.4977 18.9626 22.0053 19.8148L23.7384 20.8161ZM24.7792 16.6129H26.7807C26.7807 14.7163 26.3672 12.964 25.4616 11.4314L23.7384 12.4496L22.0152 13.4679C22.4973 14.2837 22.7776 15.3069 22.7776 16.6129H24.7792ZM23.7384 12.4496L25.488 11.4776C24.642 9.9548 23.4511 8.75747 21.9347 7.93034L20.9762 9.68749L20.0178 11.4446C20.8499 11.8985 21.5003 12.5426 21.9887 13.4217L23.7384 12.4496ZM20.9762 9.68749L21.965 7.94723C20.4691 7.0973 18.8169 6.68517 17.0532 6.68517V8.68672V10.6883C18.1717 10.6883 19.1348 10.9433 19.9874 11.4278L20.9762 9.68749ZM17.0532 8.68672V6.68517C15.2697 6.68517 13.6028 7.09412 12.1013 7.94723L13.0901 9.68749L14.0789 11.4278C14.9259 10.9465 15.9011 10.6883 17.0532 10.6883V8.68672ZM13.0901 9.68749L12.1317 7.93034C10.6224 8.75356 9.42554 9.94141 8.55489 11.4483L10.288 12.4496L12.021 13.451C12.5381 12.556 13.2093 11.9024 14.0486 11.4446L13.0901 9.68749ZM10.288 12.4496L8.5477 11.4608C7.67997 12.9881 7.28564 14.7295 7.28564 16.6129H9.28719H11.2887C11.2887 15.2937 11.5616 14.2597 12.0282 13.4384L10.288 12.4496ZM9.28719 16.6129H7.28564C7.28564 18.4976 7.68041 20.244 8.53829 21.7881L10.288 20.8161L12.0376 19.8441C11.5611 18.9864 11.2887 17.9306 11.2887 16.6129H9.28719ZM10.288 20.8161L8.55489 21.8174C9.42554 23.3243 10.6224 24.5122 12.1317 25.3354L13.0901 23.5782L14.0486 21.8211C13.2093 21.3633 12.5381 20.7097 12.021 19.8148L10.288 20.8161ZM13.0901 23.5782L12.1482 25.3443C13.6561 26.1485 15.3035 26.5405 17.0532 26.5405V24.539V22.5374C15.9207 22.5374 14.926 22.2889 14.032 21.8122L13.0901 23.5782ZM34.8191 2.60201V0.600459H32.8176V2.60201H34.8191ZM54.6745 2.60201H56.676V0.600459H54.6745V2.60201ZM54.6745 8.56663V10.5682H56.676V8.56663H54.6745ZM41.9046 8.56663V6.56508H39.9031V8.56663H41.9046ZM41.9046 13.8107H39.9031V15.8122H41.9046V13.8107ZM51.2318 13.8107H53.2334V11.8091H51.2318V13.8107ZM51.2318 19.375V21.3765H53.2334V19.375H51.2318ZM41.9046 19.375V17.3734H39.9031V19.375H41.9046ZM41.9046 30.5837V32.5852H43.9062V30.5837H41.9046ZM34.8191 30.5837H32.8176V32.5852H34.8191V30.5837ZM34.8191 2.60201V4.60356H54.6745V2.60201V0.600459H34.8191V2.60201ZM54.6745 2.60201H52.6729V8.56663H54.6745H56.676V2.60201H54.6745ZM54.6745 8.56663V6.56508H41.9046V8.56663V10.5682H54.6745V8.56663ZM41.9046 8.56663H39.9031V13.8107H41.9046H43.9062V8.56663H41.9046ZM41.9046 13.8107V15.8122H51.2318V13.8107V11.8091H41.9046V13.8107ZM51.2318 13.8107H49.2303V19.375H51.2318H53.2334V13.8107H51.2318ZM51.2318 19.375V17.3734H41.9046V19.375V21.3765H51.2318V19.375ZM41.9046 19.375H39.9031V30.5837H41.9046H43.9062V19.375H41.9046ZM41.9046 30.5837V28.5821H34.8191V30.5837V32.5852H41.9046V30.5837ZM34.8191 30.5837H36.8207V2.60201H34.8191H32.8176V30.5837H34.8191ZM56.672 2.60201V0.600459H54.6704V2.60201H56.672ZM76.5273 2.60201H78.5289V0.600459H76.5273V2.60201ZM76.5273 8.56663V10.5682H78.5289V8.56663H76.5273ZM63.7575 8.56663V6.56508H61.7559V8.56663H63.7575ZM63.7575 13.8107H61.7559V15.8122H63.7575V13.8107ZM73.0847 13.8107H75.0862V11.8091H73.0847V13.8107ZM73.0847 19.375V21.3765H75.0862V19.375H73.0847ZM63.7575 19.375V17.3734H61.7559V19.375H63.7575ZM63.7575 24.619H61.7559V26.6206H63.7575V24.619ZM76.5273 24.619H78.5289V22.6175H76.5273V24.619ZM76.5273 30.5837V32.5852H78.5289V30.5837H76.5273ZM56.672 30.5837H54.6704V32.5852H56.672V30.5837ZM56.672 2.60201V4.60356H76.5273V2.60201V0.600459H56.672V2.60201ZM76.5273 2.60201H74.5258V8.56663H76.5273H78.5289V2.60201H76.5273ZM76.5273 8.56663V6.56508H63.7575V8.56663V10.5682H76.5273V8.56663ZM63.7575 8.56663H61.7559V13.8107H63.7575H65.759V8.56663H63.7575ZM63.7575 13.8107V15.8122H73.0847V13.8107V11.8091H63.7575V13.8107ZM73.0847 13.8107H71.0831V19.375H73.0847H75.0862V13.8107H73.0847ZM73.0847 19.375V17.3734H63.7575V19.375V21.3765H73.0847V19.375ZM63.7575 19.375H61.7559V24.619H63.7575H65.759V19.375H63.7575ZM63.7575 24.619V26.6206H76.5273V24.619V22.6175H63.7575V24.619ZM76.5273 24.619H74.5258V30.5837H76.5273H78.5289V24.619H76.5273ZM76.5273 30.5837V28.5821H56.672V30.5837V32.5852H76.5273V30.5837ZM56.672 30.5837H58.6735V2.60201H56.672H54.6704V30.5837H56.672ZM79.3458 2.60201V0.600459H77.3442V2.60201H79.3458ZM99.6014 5.08393L98.2637 6.57274L98.269 6.57752L98.2743 6.58227L99.6014 5.08393ZM101.043 17.5336L99.34 16.4811L101.043 17.5336ZM97.1996 20.8161L96.4004 18.981L94.4528 19.8292L95.4152 21.7229L97.1996 20.8161ZM102.163 30.5837V32.5852H105.426L103.948 29.6769L102.163 30.5837ZM94.8778 30.5837L93.0925 31.4885L93.6483 32.5852H94.8778V30.5837ZM90.4343 21.8169L92.2197 20.912L91.6638 19.8153H90.4343V21.8169ZM86.4312 21.8169V19.8153H84.4297V21.8169H86.4312ZM86.4312 30.5837V32.5852H88.4328V30.5837H86.4312ZM79.3458 30.5837H77.3442V32.5852H79.3458V30.5837ZM93.9571 15.0516L95.0934 16.6993L95.1124 16.6863L95.131 16.6728L93.9571 15.0516ZM93.9571 9.36724L92.7937 10.996L92.8265 11.0194L92.8602 11.0415L93.9571 9.36724ZM86.4312 8.56663V6.56508H84.4297V8.56663H86.4312ZM86.4312 15.8523H84.4297V17.8538H86.4312V15.8523ZM79.3458 2.60201V4.60356H91.9155V2.60201V0.600459H79.3458V2.60201ZM91.9155 2.60201V4.60356C94.8681 4.60356 96.8957 5.34352 98.2637 6.57274L99.6014 5.08393L100.939 3.59512C98.6244 1.51511 95.5279 0.600459 91.9155 0.600459V2.60201ZM99.6014 5.08393L98.2743 6.58227C99.6135 7.76835 100.402 9.53784 100.402 12.2094H102.404H104.405C104.405 8.68959 103.326 5.70873 100.929 3.58559L99.6014 5.08393ZM102.404 12.2094H100.402C100.402 13.9964 100.015 15.3893 99.34 16.4811L101.043 17.5336L102.745 18.586C103.885 16.7422 104.405 14.5857 104.405 12.2094H102.404ZM101.043 17.5336L99.34 16.4811C98.6572 17.5856 97.6994 18.4153 96.4004 18.981L97.1996 20.8161L97.9987 22.6512C100.009 21.7758 101.613 20.4171 102.745 18.586L101.043 17.5336ZM97.1996 20.8161L95.4152 21.7229L100.379 31.4905L102.163 30.5837L103.948 29.6769L98.9839 19.9093L97.1996 20.8161ZM102.163 30.5837V28.5821H94.8778V30.5837V32.5852H102.163V30.5837ZM94.8778 30.5837L96.6631 29.6788L92.2197 20.912L90.4343 21.8169L88.649 22.7218L93.0925 31.4885L94.8778 30.5837ZM90.4343 21.8169V19.8153H86.4312V21.8169V23.8184H90.4343V21.8169ZM86.4312 21.8169H84.4297V30.5837H86.4312H88.4328V21.8169H86.4312ZM86.4312 30.5837V28.5821H79.3458V30.5837V32.5852H86.4312V30.5837ZM79.3458 30.5837H81.3473V2.60201H79.3458H77.3442V30.5837H79.3458ZM90.6745 15.8523V17.8538C92.3023 17.8538 93.8558 17.5529 95.0934 16.6993L93.9571 15.0516L92.8207 13.4039C92.5105 13.6179 91.8756 13.8507 90.6745 13.8507V15.8523ZM93.9571 15.0516L95.131 16.6728C96.6121 15.6002 97.1195 13.9126 97.1195 12.2094H95.118H93.1164C93.1164 13.175 92.8499 13.3822 92.7831 13.4305L93.9571 15.0516ZM95.118 12.2094H97.1195C97.1195 10.5051 96.6378 8.73072 95.054 7.69302L93.9571 9.36724L92.8602 11.0415C92.8723 11.0494 92.9176 11.075 92.9748 11.2149C93.042 11.3793 93.1164 11.6883 93.1164 12.2094H95.118ZM93.9571 9.36724L95.1204 7.73852C93.8901 6.85968 92.3123 6.56508 90.6745 6.56508V8.56663V10.5682C91.9189 10.5682 92.5296 10.8073 92.7937 10.996L93.9571 9.36724ZM90.6745 8.56663V6.56508H86.4312V8.56663V10.5682H90.6745V8.56663ZM86.4312 8.56663H84.4297V15.8523H86.4312H88.4328V8.56663H86.4312ZM86.4312 15.8523V17.8538H90.6745V15.8523V13.8507H86.4312V15.8523ZM110.303 8.56663H112.304V6.56508H110.303V8.56663ZM102.417 8.56663H100.415V10.5682H102.417V8.56663ZM102.417 2.60201V0.600459H100.415V2.60201H102.417ZM125.314 2.60201H127.316V0.600459H125.314V2.60201ZM125.314 8.56663V10.5682H127.316V8.56663H125.314ZM117.388 8.56663V6.56508H115.387V8.56663H117.388ZM117.388 30.5837V32.5852H119.39V30.5837H117.388ZM110.303 30.5837H108.301V32.5852H110.303V30.5837ZM110.303 8.56663V6.56508H102.417V8.56663V10.5682H110.303V8.56663ZM102.417 8.56663H104.418V2.60201H102.417H100.415V8.56663H102.417ZM102.417 2.60201V4.60356H125.314V2.60201V0.600459H102.417V2.60201ZM125.314 2.60201H123.313V8.56663H125.314H127.316V2.60201H125.314ZM125.314 8.56663V6.56508H117.388V8.56663V10.5682H125.314V8.56663ZM117.388 8.56663H115.387V30.5837H117.388H119.39V8.56663H117.388ZM117.388 30.5837V28.5821H110.303V30.5837V32.5852H117.388V30.5837ZM110.303 30.5837H112.304V8.56663H110.303H108.301V30.5837H110.303ZM132.912 2.60201V0.600459H131.558L131.054 1.85773L132.912 2.60201ZM139.878 2.60201L141.737 1.86003L141.234 0.600459H139.878V2.60201ZM151.046 30.5837V32.5852H154L152.905 29.8417L151.046 30.5837ZM143.801 30.5837L141.935 31.3091L142.431 32.5852H143.801V30.5837ZM141.559 24.8192L143.424 24.0937L142.928 22.8176H141.559V24.8192ZM131.231 24.8192V22.8176H129.862L129.365 24.0937L131.231 24.8192ZM128.989 30.5837V32.5852H130.358L130.855 31.3091L128.989 30.5837ZM121.704 30.5837L119.846 29.8394L118.746 32.5852H121.704V30.5837ZM139.798 19.375V21.3765H142.65L141.68 18.6942L139.798 19.375ZM136.395 9.96771L138.277 9.28691L136.406 4.11356L134.515 9.27984L136.395 9.96771ZM132.952 19.375L131.073 18.6871L130.088 21.3765H132.952V19.375ZM132.912 2.60201V4.60356H139.878V2.60201V0.600459H132.912V2.60201ZM139.878 2.60201L138.019 3.34399L149.187 31.3256L151.046 30.5837L152.905 29.8417L141.737 1.86003L139.878 2.60201ZM151.046 30.5837V28.5821H143.801V30.5837V32.5852H151.046V30.5837ZM143.801 30.5837L145.666 29.8582L143.424 24.0937L141.559 24.8192L139.693 25.5447L141.935 31.3091L143.801 30.5837ZM141.559 24.8192V22.8176H131.231V24.8192V26.8207H141.559V24.8192ZM131.231 24.8192L129.365 24.0937L127.124 29.8582L128.989 30.5837L130.855 31.3091L133.096 25.5447L131.231 24.8192ZM128.989 30.5837V28.5821H121.704V30.5837V32.5852H128.989V30.5837ZM121.704 30.5837L123.562 31.3279L134.77 3.34628L132.912 2.60201L131.054 1.85773L119.846 29.8394L121.704 30.5837ZM139.798 19.375L141.68 18.6942L138.277 9.28691L136.395 9.96771L134.513 10.6485L137.915 20.0558L139.798 19.375ZM136.395 9.96771L134.515 9.27984L131.073 18.6871L132.952 19.375L134.832 20.0629L138.275 10.6556L136.395 9.96771ZM132.952 19.375V21.3765H139.798V19.375V17.3734H132.952V19.375Z" fill="white" fill-opacity="0.9" mask="url(#path-1-outside-1_689_1205)"/>
</svg>
