<svg width="375" height="95" viewBox="0 0 375 95" fill="none" xmlns="http://www.w3.org/2000/svg">
<rect y="18" width="375" height="60" fill="#1E1E1E"/>
<mask id="path-2-outside-1_712_1164" maskUnits="userSpaceOnUse" x="-70" y="30" width="154" height="34" fill="black">
<rect fill="white" x="-70" y="30" width="154" height="34"/>
<path d="M-52.9287 61.6C-55.7554 61.6 -58.3154 60.9867 -60.6087 59.76C-62.8754 58.5333 -64.6754 56.8267 -66.0087 54.64C-67.3154 52.4267 -67.9687 49.8933 -67.9687 47.04C-67.9687 44.1867 -67.3154 41.6533 -66.0087 39.44C-64.6754 37.2267 -62.8754 35.5067 -60.6087 34.28C-58.3154 33.0533 -55.7554 32.44 -52.9287 32.44C-50.1287 32.44 -47.5954 33.0533 -45.3287 34.28C-43.0354 35.5067 -41.2354 37.2267 -39.9287 39.44C-38.6221 41.6533 -37.9687 44.1867 -37.9687 47.04C-37.9687 49.8933 -38.6221 52.4267 -39.9287 54.64C-41.2354 56.8267 -43.0354 58.5333 -45.3287 59.76C-47.5954 60.9867 -50.1287 61.6 -52.9287 61.6ZM-52.9287 54.96C-51.5154 54.96 -50.2221 54.64 -49.0487 54C-47.8754 53.36 -46.9421 52.44 -46.2487 51.24C-45.5554 50.04 -45.2087 48.64 -45.2087 47.04C-45.2087 45.44 -45.5554 44.0533 -46.2487 42.88C-46.9154 41.68 -47.8354 40.76 -49.0087 40.12C-50.1821 39.4533 -51.4887 39.12 -52.9287 39.12C-54.3954 39.12 -55.7154 39.4533 -56.8887 40.12C-58.0621 40.76 -58.9954 41.68 -59.6887 42.88C-60.3554 44.0533 -60.6887 45.44 -60.6887 47.04C-60.6887 48.64 -60.3554 50.04 -59.6887 51.24C-58.9954 52.44 -58.0621 53.36 -56.8887 54C-55.6887 54.64 -54.3687 54.96 -52.9287 54.96ZM-35.1766 33.04H-15.3366V39H-28.0966V44.24H-18.7766V49.8H-28.0966V61H-35.1766V33.04ZM-13.3406 33.04H6.49938V39H-6.26062V44.24H3.05938V49.8H-6.26062V55.04H6.49938V61H-13.3406V33.04ZM9.31563 33.04H21.8756C25.1556 33.04 27.7156 33.8667 29.5556 35.52C31.4223 37.1733 32.3556 39.5467 32.3556 42.64C32.3556 44.72 31.9023 46.4933 30.9956 47.96C30.089 49.4267 28.809 50.52 27.1556 51.24L32.1156 61H24.8356L20.3956 52.24H16.3956V61H9.31563V33.04ZM20.6356 46.28C22.049 46.28 23.1423 46.0133 23.9156 45.48C24.689 44.92 25.0756 43.9733 25.0756 42.64C25.0756 41.2533 24.689 40.3067 23.9156 39.8C23.169 39.2667 22.0756 39 20.6356 39H16.3956V46.28H20.6356ZM40.2488 39H32.3688V33.04H55.2488V39H47.3288V61H40.2488V39ZM62.8406 33.04H69.8006L80.9606 61H73.7206L71.4806 55.24H61.1606L58.9206 61H51.6406L62.8406 33.04ZM69.7206 49.8L66.3206 40.4L62.8806 49.8H69.7206Z"/>
</mask>
<path d="M-60.6087 59.76L-61.5607 61.519L-61.5521 61.5236L-60.6087 59.76ZM-66.0087 54.64L-67.731 55.6568L-67.7238 55.669L-67.7163 55.6812L-66.0087 54.64ZM-66.0087 39.44L-67.7219 38.408L-67.7265 38.4156L-67.731 38.4232L-66.0087 39.44ZM-60.6087 34.28L-61.5521 32.5164L-61.5606 32.5211L-60.6087 34.28ZM-45.3287 34.28L-46.2807 36.039L-46.2721 36.0436L-45.3287 34.28ZM-39.9287 39.44L-41.651 40.4568L-39.9287 39.44ZM-39.9287 54.64L-38.2119 55.6659L-38.2065 55.6568L-39.9287 54.64ZM-45.3287 59.76L-46.2721 57.9964L-46.2806 58.0011L-45.3287 59.76ZM-49.0487 54L-50.0065 52.2442L-49.0487 54ZM-46.2487 51.24L-47.9805 50.2394H-47.9805L-46.2487 51.24ZM-46.2487 42.88L-47.9971 43.8513L-47.9841 43.8745L-47.9706 43.8975L-46.2487 42.88ZM-49.0087 40.12L-49.9968 41.8589L-49.9817 41.8675L-49.9665 41.8758L-49.0087 40.12ZM-56.8887 40.12L-55.931 41.8758L-55.9158 41.8675L-55.9007 41.8589L-56.8887 40.12ZM-59.6887 42.88L-61.4205 41.8794L-61.4241 41.8857L-61.4277 41.892L-59.6887 42.88ZM-59.6887 51.24L-61.4371 52.2113L-61.4289 52.226L-61.4205 52.2406L-59.6887 51.24ZM-56.8887 54L-57.8465 55.7558L-57.8382 55.7603L-57.8299 55.7647L-56.8887 54ZM-52.9287 61.6V59.6C-55.4556 59.6 -57.6871 59.0546 -59.6654 57.9964L-60.6087 59.76L-61.5521 61.5236C-58.9438 62.9187 -56.0552 63.6 -52.9287 63.6V61.6ZM-60.6087 59.76L-59.6568 58.0011C-61.6147 56.9415 -63.1531 55.4816 -64.3012 53.5988L-66.0087 54.64L-67.7163 55.6812C-66.1977 58.1717 -64.1361 60.1251 -61.5606 61.5189L-60.6087 59.76ZM-66.0087 54.64L-64.2865 53.6232C-65.3918 51.7509 -65.9688 49.5761 -65.9688 47.04H-67.9688H-69.9688C-69.9688 50.2106 -69.239 53.1024 -67.731 55.6568L-66.0087 54.64ZM-67.9688 47.04H-65.9688C-65.9688 44.5039 -65.3918 42.3291 -64.2865 40.4568L-66.0087 39.44L-67.731 38.4232C-69.239 40.9776 -69.9688 43.8694 -69.9688 47.04H-67.9688ZM-66.0087 39.44L-64.2956 40.472C-63.1461 38.5638 -61.6086 37.0952 -59.6568 36.0389L-60.6087 34.28L-61.5606 32.5211C-64.1423 33.9182 -66.2048 35.8895 -67.7219 38.408L-66.0087 39.44ZM-60.6087 34.28L-59.6654 36.0436C-57.6871 34.9854 -55.4556 34.44 -52.9287 34.44V32.44V30.44C-56.0552 30.44 -58.9438 31.1213 -61.5521 32.5164L-60.6087 34.28ZM-52.9287 32.44V34.44C-50.4317 34.44 -48.2301 34.9839 -46.2806 36.0389L-45.3287 34.28L-44.3769 32.5211C-46.9607 31.1227 -49.8258 30.44 -52.9287 30.44V32.44ZM-45.3287 34.28L-46.2721 36.0436C-44.2978 37.0995 -42.769 38.563 -41.651 40.4568L-39.9287 39.44L-38.2065 38.4232C-39.7018 35.8904 -41.773 33.9138 -44.3854 32.5164L-45.3287 34.28ZM-39.9287 39.44L-41.651 40.4568C-40.5457 42.3291 -39.9687 44.5039 -39.9687 47.04H-37.9687H-35.9688C-35.9688 43.8694 -36.6985 40.9776 -38.2065 38.4232L-39.9287 39.44ZM-37.9687 47.04H-39.9687C-39.9687 49.5761 -40.5457 51.7509 -41.651 53.6232L-39.9287 54.64L-38.2065 55.6568C-36.6985 53.1024 -35.9688 50.2106 -35.9688 47.04H-37.9687ZM-39.9287 54.64L-41.6456 53.6141C-42.762 55.4824 -44.2916 56.9371 -46.2721 57.9964L-45.3287 59.76L-44.3854 61.5236C-41.7792 60.1295 -39.7088 58.1709 -38.2119 55.6659L-39.9287 54.64ZM-45.3287 59.76L-46.2806 58.0011C-48.2301 59.0561 -50.4317 59.6 -52.9287 59.6V61.6V63.6C-49.8258 63.6 -46.9607 62.9173 -44.3769 61.5189L-45.3287 59.76ZM-52.9287 54.96V56.96C-51.2007 56.96 -49.5751 56.5653 -48.091 55.7558L-49.0487 54L-50.0065 52.2442C-50.869 52.7147 -51.8302 52.96 -52.9287 52.96V54.96ZM-49.0487 54L-48.091 55.7558C-46.583 54.9332 -45.387 53.7463 -44.517 52.2406L-46.2487 51.24L-47.9805 50.2394C-48.4972 51.1337 -49.1679 51.7868 -50.0065 52.2442L-49.0487 54ZM-46.2487 51.24L-44.517 52.2406C-43.6223 50.6921 -43.2087 48.9363 -43.2087 47.04H-45.2087H-47.2087C-47.2087 48.3437 -47.4885 49.3879 -47.9805 50.2394L-46.2487 51.24ZM-45.2087 47.04H-43.2087C-43.2087 45.145 -43.6219 43.394 -44.5269 41.8625L-46.2487 42.88L-47.9706 43.8975C-47.4889 44.7127 -47.2087 45.735 -47.2087 47.04H-45.2087ZM-46.2487 42.88L-44.5004 41.9087C-45.3458 40.3871 -46.5358 39.1907 -48.051 38.3642L-49.0087 40.12L-49.9665 41.8758C-49.135 42.3293 -48.4851 42.9729 -47.9971 43.8513L-46.2487 42.88ZM-49.0087 40.12L-48.0207 38.3811C-49.5155 37.5318 -51.1664 37.12 -52.9287 37.12V39.12V41.12C-51.8111 41.12 -50.8487 41.3749 -49.9968 41.8589L-49.0087 40.12ZM-52.9287 39.12V37.12C-54.7109 37.12 -56.3764 37.5286 -57.8768 38.3811L-56.8887 40.12L-55.9007 41.8589C-55.0544 41.378 -54.08 41.12 -52.9287 41.12V39.12ZM-56.8887 40.12L-57.8465 38.3642C-59.3545 39.1868 -60.5505 40.3737 -61.4205 41.8794L-59.6887 42.88L-57.957 43.8806C-57.4403 42.9863 -56.7696 42.3332 -55.931 41.8758L-56.8887 40.12ZM-59.6887 42.88L-61.4277 41.892C-62.2947 43.418 -62.6887 45.1581 -62.6887 47.04H-60.6887H-58.6887C-58.6887 45.7219 -58.4161 44.6887 -57.9498 43.868L-59.6887 42.88ZM-60.6887 47.04H-62.6887C-62.6887 48.9232 -62.2943 50.6683 -61.4371 52.2113L-59.6887 51.24L-57.9404 50.2687C-58.4166 49.4117 -58.6887 48.3568 -58.6887 47.04H-60.6887ZM-59.6887 51.24L-61.4205 52.2406C-60.5505 53.7463 -59.3545 54.9332 -57.8465 55.7558L-56.8887 54L-55.931 52.2442C-56.7696 51.7868 -57.4403 51.1337 -57.957 50.2394L-59.6887 51.24ZM-56.8887 54L-57.8299 55.7647C-56.3232 56.5683 -54.6771 56.96 -52.9287 56.96V54.96V52.96C-54.0604 52.96 -55.0543 52.7117 -55.9476 52.2353L-56.8887 54ZM-35.1766 33.04V31.04H-37.1766V33.04H-35.1766ZM-15.3366 33.04H-13.3366V31.04H-15.3366V33.04ZM-15.3366 39V41H-13.3366V39H-15.3366ZM-28.0966 39V37H-30.0966V39H-28.0966ZM-28.0966 44.24H-30.0966V46.24H-28.0966V44.24ZM-18.7766 44.24H-16.7766V42.24H-18.7766V44.24ZM-18.7766 49.8V51.8H-16.7766V49.8H-18.7766ZM-28.0966 49.8V47.8H-30.0966V49.8H-28.0966ZM-28.0966 61V63H-26.0966V61H-28.0966ZM-35.1766 61H-37.1766V63H-35.1766V61ZM-35.1766 33.04V35.04H-15.3366V33.04V31.04H-35.1766V33.04ZM-15.3366 33.04H-17.3366V39H-15.3366H-13.3366V33.04H-15.3366ZM-15.3366 39V37H-28.0966V39V41H-15.3366V39ZM-28.0966 39H-30.0966V44.24H-28.0966H-26.0966V39H-28.0966ZM-28.0966 44.24V46.24H-18.7766V44.24V42.24H-28.0966V44.24ZM-18.7766 44.24H-20.7766V49.8H-18.7766H-16.7766V44.24H-18.7766ZM-18.7766 49.8V47.8H-28.0966V49.8V51.8H-18.7766V49.8ZM-28.0966 49.8H-30.0966V61H-28.0966H-26.0966V49.8H-28.0966ZM-28.0966 61V59H-35.1766V61V63H-28.0966V61ZM-35.1766 61H-33.1766V33.04H-35.1766H-37.1766V61H-35.1766ZM-13.3406 33.04V31.04H-15.3406V33.04H-13.3406ZM6.49937 33.04H8.49937V31.04H6.49937V33.04ZM6.49937 39V41H8.49937V39H6.49937ZM-6.26062 39V37H-8.26062V39H-6.26062ZM-6.26062 44.24H-8.26062V46.24H-6.26062V44.24ZM3.05937 44.24H5.05937V42.24H3.05937V44.24ZM3.05937 49.8V51.8H5.05937V49.8H3.05937ZM-6.26062 49.8V47.8H-8.26062V49.8H-6.26062ZM-6.26062 55.04H-8.26062V57.04H-6.26062V55.04ZM6.49937 55.04H8.49937V53.04H6.49937V55.04ZM6.49937 61V63H8.49937V61H6.49937ZM-13.3406 61H-15.3406V63H-13.3406V61ZM-13.3406 33.04V35.04H6.49937V33.04V31.04H-13.3406V33.04ZM6.49937 33.04H4.49937V39H6.49937H8.49937V33.04H6.49937ZM6.49937 39V37H-6.26062V39V41H6.49937V39ZM-6.26062 39H-8.26062V44.24H-6.26062H-4.26063V39H-6.26062ZM-6.26062 44.24V46.24H3.05937V44.24V42.24H-6.26062V44.24ZM3.05937 44.24H1.05937V49.8H3.05937H5.05937V44.24H3.05937ZM3.05937 49.8V47.8H-6.26062V49.8V51.8H3.05937V49.8ZM-6.26062 49.8H-8.26062V55.04H-6.26062H-4.26063V49.8H-6.26062ZM-6.26062 55.04V57.04H6.49937V55.04V53.04H-6.26062V55.04ZM6.49937 55.04H4.49937V61H6.49937H8.49937V55.04H6.49937ZM6.49937 61V59H-13.3406V61V63H6.49937V61ZM-13.3406 61H-11.3406V33.04H-13.3406H-15.3406V61H-13.3406ZM9.31563 33.04V31.04H7.31563V33.04H9.31563ZM29.5556 35.52L28.2189 37.0077L28.2242 37.0124L28.2296 37.0172L29.5556 35.52ZM30.9956 47.96L29.2944 46.9084L30.9956 47.96ZM27.1556 51.24L26.3571 49.4063L24.411 50.2538L25.3727 52.1461L27.1556 51.24ZM32.1156 61V63H35.3755L33.8986 60.0939L32.1156 61ZM24.8356 61L23.0517 61.9042L23.6071 63H24.8356V61ZM20.3956 52.24L22.1796 51.3358L21.6242 50.24H20.3956V52.24ZM16.3956 52.24V50.24H14.3956V52.24H16.3956ZM16.3956 61V63H18.3956V61H16.3956ZM9.31563 61H7.31563V63H9.31563V61ZM23.9156 45.48L25.0511 47.1264L25.07 47.1134L25.0886 47.0999L23.9156 45.48ZM23.9156 39.8L22.7532 41.4275L22.7859 41.4509L22.8196 41.4729L23.9156 39.8ZM16.3956 39V37H14.3956V39H16.3956ZM16.3956 46.28H14.3956V48.28H16.3956V46.28ZM9.31563 33.04V35.04H21.8756V33.04V31.04H9.31563V33.04ZM21.8756 33.04V35.04C24.826 35.04 26.8519 35.7794 28.2189 37.0077L29.5556 35.52L30.8924 34.0323C28.5793 31.9539 25.4853 31.04 21.8756 31.04V33.04ZM29.5556 35.52L28.2296 37.0172C29.5676 38.2023 30.3556 39.9705 30.3556 42.64H32.3556H34.3556C34.3556 39.1229 33.2769 36.1443 30.8817 34.0228L29.5556 35.52ZM32.3556 42.64H30.3556C30.3556 44.4256 29.9689 45.8174 29.2944 46.9084L30.9956 47.96L32.6968 49.0116C33.8357 47.1693 34.3556 45.0144 34.3556 42.64H32.3556ZM30.9956 47.96L29.2944 46.9084C28.6122 48.012 27.6551 48.8411 26.3571 49.4063L27.1556 51.24L27.9542 53.0737C29.9629 52.1989 31.5658 50.8413 32.6968 49.0116L30.9956 47.96ZM27.1556 51.24L25.3727 52.1461L30.3327 61.9061L32.1156 61L33.8986 60.0939L28.9386 50.3339L27.1556 51.24ZM32.1156 61V59H24.8356V61V63H32.1156V61ZM24.8356 61L26.6196 60.0958L22.1796 51.3358L20.3956 52.24L18.6117 53.1442L23.0517 61.9042L24.8356 61ZM20.3956 52.24V50.24H16.3956V52.24V54.24H20.3956V52.24ZM16.3956 52.24H14.3956V61H16.3956H18.3956V52.24H16.3956ZM16.3956 61V59H9.31563V61V63H16.3956V61ZM9.31563 61H11.3156V33.04H9.31563H7.31563V61H9.31563ZM20.6356 46.28V48.28C22.2621 48.28 23.8144 47.9793 25.0511 47.1264L23.9156 45.48L22.7802 43.8336C22.4702 44.0474 21.8358 44.28 20.6356 44.28V46.28ZM23.9156 45.48L25.0886 47.0999C26.5686 46.0282 27.0756 44.3419 27.0756 42.64H25.0756H23.0756C23.0756 43.6048 22.8093 43.8118 22.7426 43.8601L23.9156 45.48ZM25.0756 42.64H27.0756C27.0756 40.937 26.5943 39.164 25.0117 38.1271L23.9156 39.8L22.8196 41.4729C22.8317 41.4809 22.877 41.5064 22.9341 41.6462C23.0012 41.8105 23.0756 42.1193 23.0756 42.64H25.0756ZM23.9156 39.8L25.0781 38.1725C23.8487 37.2944 22.2722 37 20.6356 37V39V41C21.8791 41 22.4892 41.239 22.7532 41.4275L23.9156 39.8ZM20.6356 39V37H16.3956V39V41H20.6356V39ZM16.3956 39H14.3956V46.28H16.3956H18.3956V39H16.3956ZM16.3956 46.28V48.28H20.6356V46.28V44.28H16.3956V46.28ZM40.2487 39H42.2487V37H40.2487V39ZM32.3688 39H30.3688V41H32.3688V39ZM32.3688 33.04V31.04H30.3688V33.04H32.3688ZM55.2487 33.04H57.2487V31.04H55.2487V33.04ZM55.2487 39V41H57.2487V39H55.2487ZM47.3288 39V37H45.3288V39H47.3288ZM47.3288 61V63H49.3288V61H47.3288ZM40.2487 61H38.2487V63H40.2487V61ZM40.2487 39V37H32.3688V39V41H40.2487V39ZM32.3688 39H34.3688V33.04H32.3688H30.3688V39H32.3688ZM32.3688 33.04V35.04H55.2487V33.04V31.04H32.3688V33.04ZM55.2487 33.04H53.2487V39H55.2487H57.2487V33.04H55.2487ZM55.2487 39V37H47.3288V39V41H55.2487V39ZM47.3288 39H45.3288V61H47.3288H49.3288V39H47.3288ZM47.3288 61V59H40.2487V61V63H47.3288V61ZM40.2487 61H42.2487V39H40.2487H38.2487V61H40.2487ZM62.8406 33.04V31.04H61.4873L60.984 32.2963L62.8406 33.04ZM69.8006 33.04L71.6581 32.2986L71.1558 31.04H69.8006V33.04ZM80.9606 61V63H83.9123L82.8181 60.2586L80.9606 61ZM73.7206 61L71.8566 61.7249L72.3525 63H73.7206V61ZM71.4806 55.24L73.3446 54.5151L72.8488 53.24H71.4806V55.24ZM61.1606 55.24V53.24H59.7925L59.2966 54.5151L61.1606 55.24ZM58.9206 61V63H60.2888L60.7846 61.7249L58.9206 61ZM51.6406 61L49.784 60.2563L48.685 63H51.6406V61ZM69.7206 49.8V51.8H72.5708L71.6014 49.1197L69.7206 49.8ZM66.3206 40.4L68.2014 39.7197L66.3316 34.5504L64.4424 39.7127L66.3206 40.4ZM62.8806 49.8L61.0024 49.1127L60.019 51.8H62.8806V49.8ZM62.8406 33.04V35.04H69.8006V33.04V31.04H62.8406V33.04ZM69.8006 33.04L67.9431 33.7814L79.1031 61.7414L80.9606 61L82.8181 60.2586L71.6581 32.2986L69.8006 33.04ZM80.9606 61V59H73.7206V61V63H80.9606V61ZM73.7206 61L75.5846 60.2751L73.3446 54.5151L71.4806 55.24L69.6166 55.9649L71.8566 61.7249L73.7206 61ZM71.4806 55.24V53.24H61.1606V55.24V57.24H71.4806V55.24ZM61.1606 55.24L59.2966 54.5151L57.0566 60.2751L58.9206 61L60.7846 61.7249L63.0246 55.9649L61.1606 55.24ZM58.9206 61V59H51.6406V61V63H58.9206V61ZM51.6406 61L53.4972 61.7437L64.6972 33.7837L62.8406 33.04L60.984 32.2963L49.784 60.2563L51.6406 61ZM69.7206 49.8L71.6014 49.1197L68.2014 39.7197L66.3206 40.4L64.4399 41.0803L67.8399 50.4803L69.7206 49.8ZM66.3206 40.4L64.4424 39.7127L61.0024 49.1127L62.8806 49.8L64.7588 50.4873L68.1988 41.0873L66.3206 40.4ZM62.8806 49.8V51.8H69.7206V49.8V47.8H62.8806V49.8Z" fill="white" fill-opacity="0.9" mask="url(#path-2-outside-1_712_1164)"/>
<mask id="path-4-outside-2_712_1164" maskUnits="userSpaceOnUse" x="111" y="30" width="154" height="34" fill="black">
<rect fill="white" x="111" y="30" width="154" height="34"/>
<path d="M128.071 61.6C125.245 61.6 122.685 60.9867 120.391 59.76C118.125 58.5333 116.325 56.8267 114.991 54.64C113.685 52.4267 113.031 49.8933 113.031 47.04C113.031 44.1867 113.685 41.6533 114.991 39.44C116.325 37.2267 118.125 35.5067 120.391 34.28C122.685 33.0533 125.245 32.44 128.071 32.44C130.871 32.44 133.405 33.0533 135.671 34.28C137.965 35.5067 139.765 37.2267 141.071 39.44C142.378 41.6533 143.031 44.1867 143.031 47.04C143.031 49.8933 142.378 52.4267 141.071 54.64C139.765 56.8267 137.965 58.5333 135.671 59.76C133.405 60.9867 130.871 61.6 128.071 61.6ZM128.071 54.96C129.485 54.96 130.778 54.64 131.951 54C133.125 53.36 134.058 52.44 134.751 51.24C135.445 50.04 135.791 48.64 135.791 47.04C135.791 45.44 135.445 44.0533 134.751 42.88C134.085 41.68 133.165 40.76 131.991 40.12C130.818 39.4533 129.511 39.12 128.071 39.12C126.605 39.12 125.285 39.4533 124.111 40.12C122.938 40.76 122.005 41.68 121.311 42.88C120.645 44.0533 120.311 45.44 120.311 47.04C120.311 48.64 120.645 50.04 121.311 51.24C122.005 52.44 122.938 53.36 124.111 54C125.311 54.64 126.631 54.96 128.071 54.96ZM145.823 33.04H165.663V39H152.903V44.24H162.223V49.8H152.903V61H145.823V33.04ZM167.659 33.04H187.499V39H174.739V44.24H184.059V49.8H174.739V55.04H187.499V61H167.659V33.04ZM190.316 33.04H202.876C206.156 33.04 208.716 33.8667 210.556 35.52C212.422 37.1733 213.356 39.5467 213.356 42.64C213.356 44.72 212.902 46.4933 211.996 47.96C211.089 49.4267 209.809 50.52 208.156 51.24L213.116 61H205.836L201.396 52.24H197.396V61H190.316V33.04ZM201.636 46.28C203.049 46.28 204.142 46.0133 204.916 45.48C205.689 44.92 206.076 43.9733 206.076 42.64C206.076 41.2533 205.689 40.3067 204.916 39.8C204.169 39.2667 203.076 39 201.636 39H197.396V46.28H201.636ZM221.249 39H213.369V33.04H236.249V39H228.329V61H221.249V39ZM243.841 33.04H250.801L261.961 61H254.721L252.481 55.24H242.161L239.921 61H232.641L243.841 33.04ZM250.721 49.8L247.321 40.4L243.881 49.8H250.721Z"/>
</mask>
<path d="M120.391 59.76L119.439 61.519L119.448 61.5236L120.391 59.76ZM114.991 54.64L113.269 55.6568L113.276 55.669L113.284 55.6812L114.991 54.64ZM114.991 39.44L113.278 38.408L113.274 38.4156L113.269 38.4232L114.991 39.44ZM120.391 34.28L119.448 32.5164L119.439 32.5211L120.391 34.28ZM135.671 34.28L134.719 36.039L134.728 36.0436L135.671 34.28ZM141.071 39.44L139.349 40.4568L141.071 39.44ZM141.071 54.64L142.788 55.6659L142.794 55.6568L141.071 54.64ZM135.671 59.76L134.728 57.9964L134.719 58.0011L135.671 59.76ZM131.951 54L130.994 52.2442L131.951 54ZM134.751 51.24L133.02 50.2394H133.02L134.751 51.24ZM134.751 42.88L133.003 43.8513L133.016 43.8745L133.029 43.8975L134.751 42.88ZM131.991 40.12L131.003 41.8589L131.018 41.8675L131.034 41.8758L131.991 40.12ZM124.111 40.12L125.069 41.8758L125.084 41.8675L125.099 41.8589L124.111 40.12ZM121.311 42.88L119.58 41.8794L119.576 41.8857L119.572 41.892L121.311 42.88ZM121.311 51.24L119.563 52.2113L119.571 52.226L119.58 52.2406L121.311 51.24ZM124.111 54L123.154 55.7558L123.162 55.7603L123.17 55.7647L124.111 54ZM128.071 61.6V59.6C125.544 59.6 123.313 59.0546 121.335 57.9964L120.391 59.76L119.448 61.5236C122.056 62.9187 124.945 63.6 128.071 63.6V61.6ZM120.391 59.76L121.343 58.0011C119.385 56.9415 117.847 55.4816 116.699 53.5988L114.991 54.64L113.284 55.6812C114.802 58.1717 116.864 60.1251 119.439 61.5189L120.391 59.76ZM114.991 54.64L116.714 53.6232C115.608 51.7509 115.031 49.5761 115.031 47.04H113.031H111.031C111.031 50.2106 111.761 53.1024 113.269 55.6568L114.991 54.64ZM113.031 47.04H115.031C115.031 44.5039 115.608 42.3291 116.714 40.4568L114.991 39.44L113.269 38.4232C111.761 40.9776 111.031 43.8694 111.031 47.04H113.031ZM114.991 39.44L116.704 40.472C117.854 38.5638 119.391 37.0952 121.343 36.0389L120.391 34.28L119.439 32.5211C116.858 33.9182 114.795 35.8895 113.278 38.408L114.991 39.44ZM120.391 34.28L121.335 36.0436C123.313 34.9854 125.544 34.44 128.071 34.44V32.44V30.44C124.945 30.44 122.056 31.1213 119.448 32.5164L120.391 34.28ZM128.071 32.44V34.44C130.568 34.44 132.77 34.9839 134.719 36.0389L135.671 34.28L136.623 32.5211C134.039 31.1227 131.174 30.44 128.071 30.44V32.44ZM135.671 34.28L134.728 36.0436C136.702 37.0995 138.231 38.563 139.349 40.4568L141.071 39.44L142.794 38.4232C141.298 35.8904 139.227 33.9138 136.615 32.5164L135.671 34.28ZM141.071 39.44L139.349 40.4568C140.454 42.3291 141.031 44.5039 141.031 47.04H143.031H145.031C145.031 43.8694 144.302 40.9776 142.794 38.4232L141.071 39.44ZM143.031 47.04H141.031C141.031 49.5761 140.454 51.7509 139.349 53.6232L141.071 54.64L142.794 55.6568C144.302 53.1024 145.031 50.2106 145.031 47.04H143.031ZM141.071 54.64L139.354 53.6141C138.238 55.4824 136.708 56.9371 134.728 57.9964L135.671 59.76L136.615 61.5236C139.221 60.1295 141.291 58.1709 142.788 55.6659L141.071 54.64ZM135.671 59.76L134.719 58.0011C132.77 59.0561 130.568 59.6 128.071 59.6V61.6V63.6C131.174 63.6 134.039 62.9173 136.623 61.5189L135.671 59.76ZM128.071 54.96V56.96C129.799 56.96 131.425 56.5653 132.909 55.7558L131.951 54L130.994 52.2442C130.131 52.7147 129.17 52.96 128.071 52.96V54.96ZM131.951 54L132.909 55.7558C134.417 54.9332 135.613 53.7463 136.483 52.2406L134.751 51.24L133.02 50.2394C132.503 51.1337 131.832 51.7868 130.994 52.2442L131.951 54ZM134.751 51.24L136.483 52.2406C137.378 50.6921 137.791 48.9363 137.791 47.04H135.791H133.791C133.791 48.3437 133.512 49.3879 133.02 50.2394L134.751 51.24ZM135.791 47.04H137.791C137.791 45.145 137.378 43.394 136.473 41.8625L134.751 42.88L133.029 43.8975C133.511 44.7127 133.791 45.735 133.791 47.04H135.791ZM134.751 42.88L136.5 41.9087C135.654 40.3871 134.464 39.1907 132.949 38.3642L131.991 40.12L131.034 41.8758C131.865 42.3293 132.515 42.9729 133.003 43.8513L134.751 42.88ZM131.991 40.12L132.979 38.3811C131.485 37.5318 129.834 37.12 128.071 37.12V39.12V41.12C129.189 41.12 130.151 41.3749 131.003 41.8589L131.991 40.12ZM128.071 39.12V37.12C126.289 37.12 124.624 37.5286 123.123 38.3811L124.111 40.12L125.099 41.8589C125.946 41.378 126.92 41.12 128.071 41.12V39.12ZM124.111 40.12L123.154 38.3642C121.645 39.1868 120.449 40.3737 119.58 41.8794L121.311 42.88L123.043 43.8806C123.56 42.9863 124.23 42.3332 125.069 41.8758L124.111 40.12ZM121.311 42.88L119.572 41.892C118.705 43.418 118.311 45.1581 118.311 47.04H120.311H122.311C122.311 45.7219 122.584 44.6887 123.05 43.868L121.311 42.88ZM120.311 47.04H118.311C118.311 48.9232 118.706 50.6683 119.563 52.2113L121.311 51.24L123.06 50.2687C122.583 49.4117 122.311 48.3568 122.311 47.04H120.311ZM121.311 51.24L119.58 52.2406C120.449 53.7463 121.645 54.9332 123.154 55.7558L124.111 54L125.069 52.2442C124.23 51.7868 123.56 51.1337 123.043 50.2394L121.311 51.24ZM124.111 54L123.17 55.7647C124.677 56.5683 126.323 56.96 128.071 56.96V54.96V52.96C126.94 52.96 125.946 52.7117 125.052 52.2353L124.111 54ZM145.823 33.04V31.04H143.823V33.04H145.823ZM165.663 33.04H167.663V31.04H165.663V33.04ZM165.663 39V41H167.663V39H165.663ZM152.903 39V37H150.903V39H152.903ZM152.903 44.24H150.903V46.24H152.903V44.24ZM162.223 44.24H164.223V42.24H162.223V44.24ZM162.223 49.8V51.8H164.223V49.8H162.223ZM152.903 49.8V47.8H150.903V49.8H152.903ZM152.903 61V63H154.903V61H152.903ZM145.823 61H143.823V63H145.823V61ZM145.823 33.04V35.04H165.663V33.04V31.04H145.823V33.04ZM165.663 33.04H163.663V39H165.663H167.663V33.04H165.663ZM165.663 39V37H152.903V39V41H165.663V39ZM152.903 39H150.903V44.24H152.903H154.903V39H152.903ZM152.903 44.24V46.24H162.223V44.24V42.24H152.903V44.24ZM162.223 44.24H160.223V49.8H162.223H164.223V44.24H162.223ZM162.223 49.8V47.8H152.903V49.8V51.8H162.223V49.8ZM152.903 49.8H150.903V61H152.903H154.903V49.8H152.903ZM152.903 61V59H145.823V61V63H152.903V61ZM145.823 61H147.823V33.04H145.823H143.823V61H145.823ZM167.659 33.04V31.04H165.659V33.04H167.659ZM187.499 33.04H189.499V31.04H187.499V33.04ZM187.499 39V41H189.499V39H187.499ZM174.739 39V37H172.739V39H174.739ZM174.739 44.24H172.739V46.24H174.739V44.24ZM184.059 44.24H186.059V42.24H184.059V44.24ZM184.059 49.8V51.8H186.059V49.8H184.059ZM174.739 49.8V47.8H172.739V49.8H174.739ZM174.739 55.04H172.739V57.04H174.739V55.04ZM187.499 55.04H189.499V53.04H187.499V55.04ZM187.499 61V63H189.499V61H187.499ZM167.659 61H165.659V63H167.659V61ZM167.659 33.04V35.04H187.499V33.04V31.04H167.659V33.04ZM187.499 33.04H185.499V39H187.499H189.499V33.04H187.499ZM187.499 39V37H174.739V39V41H187.499V39ZM174.739 39H172.739V44.24H174.739H176.739V39H174.739ZM174.739 44.24V46.24H184.059V44.24V42.24H174.739V44.24ZM184.059 44.24H182.059V49.8H184.059H186.059V44.24H184.059ZM184.059 49.8V47.8H174.739V49.8V51.8H184.059V49.8ZM174.739 49.8H172.739V55.04H174.739H176.739V49.8H174.739ZM174.739 55.04V57.04H187.499V55.04V53.04H174.739V55.04ZM187.499 55.04H185.499V61H187.499H189.499V55.04H187.499ZM187.499 61V59H167.659V61V63H187.499V61ZM167.659 61H169.659V33.04H167.659H165.659V61H167.659ZM190.316 33.04V31.04H188.316V33.04H190.316ZM210.556 35.52L209.219 37.0077L209.224 37.0124L209.23 37.0172L210.556 35.52ZM211.996 47.96L210.294 46.9084L211.996 47.96ZM208.156 51.24L207.357 49.4063L205.411 50.2538L206.373 52.1461L208.156 51.24ZM213.116 61V63H216.375L214.899 60.0939L213.116 61ZM205.836 61L204.052 61.9042L204.607 63H205.836V61ZM201.396 52.24L203.18 51.3358L202.624 50.24H201.396V52.24ZM197.396 52.24V50.24H195.396V52.24H197.396ZM197.396 61V63H199.396V61H197.396ZM190.316 61H188.316V63H190.316V61ZM204.916 45.48L206.051 47.1264L206.07 47.1134L206.089 47.0999L204.916 45.48ZM204.916 39.8L203.753 41.4275L203.786 41.4509L203.82 41.4729L204.916 39.8ZM197.396 39V37H195.396V39H197.396ZM197.396 46.28H195.396V48.28H197.396V46.28ZM190.316 33.04V35.04H202.876V33.04V31.04H190.316V33.04ZM202.876 33.04V35.04C205.826 35.04 207.852 35.7794 209.219 37.0077L210.556 35.52L211.892 34.0323C209.579 31.9539 206.485 31.04 202.876 31.04V33.04ZM210.556 35.52L209.23 37.0172C210.568 38.2023 211.356 39.9705 211.356 42.64H213.356H215.356C215.356 39.1229 214.277 36.1443 211.882 34.0228L210.556 35.52ZM213.356 42.64H211.356C211.356 44.4256 210.969 45.8174 210.294 46.9084L211.996 47.96L213.697 49.0116C214.836 47.1693 215.356 45.0144 215.356 42.64H213.356ZM211.996 47.96L210.294 46.9084C209.612 48.012 208.655 48.8411 207.357 49.4063L208.156 51.24L208.954 53.0737C210.963 52.1989 212.566 50.8413 213.697 49.0116L211.996 47.96ZM208.156 51.24L206.373 52.1461L211.333 61.9061L213.116 61L214.899 60.0939L209.939 50.3339L208.156 51.24ZM213.116 61V59H205.836V61V63H213.116V61ZM205.836 61L207.62 60.0958L203.18 51.3358L201.396 52.24L199.612 53.1442L204.052 61.9042L205.836 61ZM201.396 52.24V50.24H197.396V52.24V54.24H201.396V52.24ZM197.396 52.24H195.396V61H197.396H199.396V52.24H197.396ZM197.396 61V59H190.316V61V63H197.396V61ZM190.316 61H192.316V33.04H190.316H188.316V61H190.316ZM201.636 46.28V48.28C203.262 48.28 204.814 47.9793 206.051 47.1264L204.916 45.48L203.78 43.8336C203.47 44.0474 202.836 44.28 201.636 44.28V46.28ZM204.916 45.48L206.089 47.0999C207.569 46.0282 208.076 44.3419 208.076 42.64H206.076H204.076C204.076 43.6048 203.809 43.8118 203.743 43.8601L204.916 45.48ZM206.076 42.64H208.076C208.076 40.937 207.594 39.164 206.012 38.1271L204.916 39.8L203.82 41.4729C203.832 41.4809 203.877 41.5064 203.934 41.6462C204.001 41.8105 204.076 42.1193 204.076 42.64H206.076ZM204.916 39.8L206.078 38.1725C204.849 37.2944 203.272 37 201.636 37V39V41C202.879 41 203.489 41.239 203.753 41.4275L204.916 39.8ZM201.636 39V37H197.396V39V41H201.636V39ZM197.396 39H195.396V46.28H197.396H199.396V39H197.396ZM197.396 46.28V48.28H201.636V46.28V44.28H197.396V46.28ZM221.249 39H223.249V37H221.249V39ZM213.369 39H211.369V41H213.369V39ZM213.369 33.04V31.04H211.369V33.04H213.369ZM236.249 33.04H238.249V31.04H236.249V33.04ZM236.249 39V41H238.249V39H236.249ZM228.329 39V37H226.329V39H228.329ZM228.329 61V63H230.329V61H228.329ZM221.249 61H219.249V63H221.249V61ZM221.249 39V37H213.369V39V41H221.249V39ZM213.369 39H215.369V33.04H213.369H211.369V39H213.369ZM213.369 33.04V35.04H236.249V33.04V31.04H213.369V33.04ZM236.249 33.04H234.249V39H236.249H238.249V33.04H236.249ZM236.249 39V37H228.329V39V41H236.249V39ZM228.329 39H226.329V61H228.329H230.329V39H228.329ZM228.329 61V59H221.249V61V63H228.329V61ZM221.249 61H223.249V39H221.249H219.249V61H221.249ZM243.841 33.04V31.04H242.487L241.984 32.2963L243.841 33.04ZM250.801 33.04L252.658 32.2986L252.156 31.04H250.801V33.04ZM261.961 61V63H264.912L263.818 60.2586L261.961 61ZM254.721 61L252.857 61.7249L253.352 63H254.721V61ZM252.481 55.24L254.345 54.5151L253.849 53.24H252.481V55.24ZM242.161 55.24V53.24H240.792L240.297 54.5151L242.161 55.24ZM239.921 61V63H241.289L241.785 61.7249L239.921 61ZM232.641 61L230.784 60.2563L229.685 63H232.641V61ZM250.721 49.8V51.8H253.571L252.601 49.1197L250.721 49.8ZM247.321 40.4L249.201 39.7197L247.332 34.5504L245.442 39.7127L247.321 40.4ZM243.881 49.8L242.002 49.1127L241.019 51.8H243.881V49.8ZM243.841 33.04V35.04H250.801V33.04V31.04H243.841V33.04ZM250.801 33.04L248.943 33.7814L260.103 61.7414L261.961 61L263.818 60.2586L252.658 32.2986L250.801 33.04ZM261.961 61V59H254.721V61V63H261.961V61ZM254.721 61L256.585 60.2751L254.345 54.5151L252.481 55.24L250.617 55.9649L252.857 61.7249L254.721 61ZM252.481 55.24V53.24H242.161V55.24V57.24H252.481V55.24ZM242.161 55.24L240.297 54.5151L238.057 60.2751L239.921 61L241.785 61.7249L244.025 55.9649L242.161 55.24ZM239.921 61V59H232.641V61V63H239.921V61ZM232.641 61L234.497 61.7437L245.697 33.7837L243.841 33.04L241.984 32.2963L230.784 60.2563L232.641 61ZM250.721 49.8L252.601 49.1197L249.201 39.7197L247.321 40.4L245.44 41.0803L248.84 50.4803L250.721 49.8ZM247.321 40.4L245.442 39.7127L242.002 49.1127L243.881 49.8L245.759 50.4873L249.199 41.0873L247.321 40.4ZM243.881 49.8V51.8H250.721V49.8V47.8H243.881V49.8Z" fill="white" fill-opacity="0.9" mask="url(#path-4-outside-2_712_1164)"/>
<mask id="path-6-outside-3_712_1164" maskUnits="userSpaceOnUse" x="292" y="30" width="154" height="34" fill="black">
<rect fill="white" x="292" y="30" width="154" height="34"/>
<path d="M309.071 61.6C306.245 61.6 303.685 60.9867 301.391 59.76C299.125 58.5333 297.325 56.8267 295.991 54.64C294.685 52.4267 294.031 49.8933 294.031 47.04C294.031 44.1867 294.685 41.6533 295.991 39.44C297.325 37.2267 299.125 35.5067 301.391 34.28C303.685 33.0533 306.245 32.44 309.071 32.44C311.871 32.44 314.405 33.0533 316.671 34.28C318.965 35.5067 320.765 37.2267 322.071 39.44C323.378 41.6533 324.031 44.1867 324.031 47.04C324.031 49.8933 323.378 52.4267 322.071 54.64C320.765 56.8267 318.965 58.5333 316.671 59.76C314.405 60.9867 311.871 61.6 309.071 61.6ZM309.071 54.96C310.485 54.96 311.778 54.64 312.951 54C314.125 53.36 315.058 52.44 315.751 51.24C316.445 50.04 316.791 48.64 316.791 47.04C316.791 45.44 316.445 44.0533 315.751 42.88C315.085 41.68 314.165 40.76 312.991 40.12C311.818 39.4533 310.511 39.12 309.071 39.12C307.605 39.12 306.285 39.4533 305.111 40.12C303.938 40.76 303.005 41.68 302.311 42.88C301.645 44.0533 301.311 45.44 301.311 47.04C301.311 48.64 301.645 50.04 302.311 51.24C303.005 52.44 303.938 53.36 305.111 54C306.311 54.64 307.631 54.96 309.071 54.96ZM326.823 33.04H346.663V39H333.903V44.24H343.223V49.8H333.903V61H326.823V33.04ZM348.659 33.04H368.499V39H355.739V44.24H365.059V49.8H355.739V55.04H368.499V61H348.659V33.04ZM371.316 33.04H383.876C387.156 33.04 389.716 33.8667 391.556 35.52C393.422 37.1733 394.356 39.5467 394.356 42.64C394.356 44.72 393.902 46.4933 392.996 47.96C392.089 49.4267 390.809 50.52 389.156 51.24L394.116 61H386.836L382.396 52.24H378.396V61H371.316V33.04ZM382.636 46.28C384.049 46.28 385.142 46.0133 385.916 45.48C386.689 44.92 387.076 43.9733 387.076 42.64C387.076 41.2533 386.689 40.3067 385.916 39.8C385.169 39.2667 384.076 39 382.636 39H378.396V46.28H382.636ZM402.249 39H394.369V33.04H417.249V39H409.329V61H402.249V39ZM424.841 33.04H431.801L442.961 61H435.721L433.481 55.24H423.161L420.921 61H413.641L424.841 33.04ZM431.721 49.8L428.321 40.4L424.881 49.8H431.721Z"/>
</mask>
<path d="M301.391 59.76L300.439 61.519L300.448 61.5236L301.391 59.76ZM295.991 54.64L294.269 55.6568L294.276 55.669L294.284 55.6812L295.991 54.64ZM295.991 39.44L294.278 38.408L294.274 38.4156L294.269 38.4232L295.991 39.44ZM301.391 34.28L300.448 32.5164L300.439 32.5211L301.391 34.28ZM316.671 34.28L315.719 36.039L315.728 36.0436L316.671 34.28ZM322.071 39.44L320.349 40.4568L322.071 39.44ZM322.071 54.64L323.788 55.6659L323.794 55.6568L322.071 54.64ZM316.671 59.76L315.728 57.9964L315.719 58.0011L316.671 59.76ZM312.951 54L311.994 52.2442L312.951 54ZM315.751 51.24L314.02 50.2394H314.02L315.751 51.24ZM315.751 42.88L314.003 43.8513L314.016 43.8745L314.029 43.8975L315.751 42.88ZM312.991 40.12L312.003 41.8589L312.018 41.8675L312.034 41.8758L312.991 40.12ZM305.111 40.12L306.069 41.8758L306.084 41.8675L306.099 41.8589L305.111 40.12ZM302.311 42.88L300.58 41.8794L300.576 41.8857L300.572 41.892L302.311 42.88ZM302.311 51.24L300.563 52.2113L300.571 52.226L300.58 52.2406L302.311 51.24ZM305.111 54L304.154 55.7558L304.162 55.7603L304.17 55.7647L305.111 54ZM309.071 61.6V59.6C306.544 59.6 304.313 59.0546 302.335 57.9964L301.391 59.76L300.448 61.5236C303.056 62.9187 305.945 63.6 309.071 63.6V61.6ZM301.391 59.76L302.343 58.0011C300.385 56.9415 298.847 55.4816 297.699 53.5988L295.991 54.64L294.284 55.6812C295.802 58.1717 297.864 60.1251 300.439 61.5189L301.391 59.76ZM295.991 54.64L297.714 53.6232C296.608 51.7509 296.031 49.5761 296.031 47.04H294.031H292.031C292.031 50.2106 292.761 53.1024 294.269 55.6568L295.991 54.64ZM294.031 47.04H296.031C296.031 44.5039 296.608 42.3291 297.714 40.4568L295.991 39.44L294.269 38.4232C292.761 40.9776 292.031 43.8694 292.031 47.04H294.031ZM295.991 39.44L297.704 40.472C298.854 38.5638 300.391 37.0952 302.343 36.0389L301.391 34.28L300.439 32.5211C297.858 33.9182 295.795 35.8895 294.278 38.408L295.991 39.44ZM301.391 34.28L302.335 36.0436C304.313 34.9854 306.544 34.44 309.071 34.44V32.44V30.44C305.945 30.44 303.056 31.1213 300.448 32.5164L301.391 34.28ZM309.071 32.44V34.44C311.568 34.44 313.77 34.9839 315.719 36.0389L316.671 34.28L317.623 32.5211C315.039 31.1227 312.174 30.44 309.071 30.44V32.44ZM316.671 34.28L315.728 36.0436C317.702 37.0995 319.231 38.563 320.349 40.4568L322.071 39.44L323.794 38.4232C322.298 35.8904 320.227 33.9138 317.615 32.5164L316.671 34.28ZM322.071 39.44L320.349 40.4568C321.454 42.3291 322.031 44.5039 322.031 47.04H324.031H326.031C326.031 43.8694 325.302 40.9776 323.794 38.4232L322.071 39.44ZM324.031 47.04H322.031C322.031 49.5761 321.454 51.7509 320.349 53.6232L322.071 54.64L323.794 55.6568C325.302 53.1024 326.031 50.2106 326.031 47.04H324.031ZM322.071 54.64L320.354 53.6141C319.238 55.4824 317.708 56.9371 315.728 57.9964L316.671 59.76L317.615 61.5236C320.221 60.1295 322.291 58.1709 323.788 55.6659L322.071 54.64ZM316.671 59.76L315.719 58.0011C313.77 59.0561 311.568 59.6 309.071 59.6V61.6V63.6C312.174 63.6 315.039 62.9173 317.623 61.5189L316.671 59.76ZM309.071 54.96V56.96C310.799 56.96 312.425 56.5653 313.909 55.7558L312.951 54L311.994 52.2442C311.131 52.7147 310.17 52.96 309.071 52.96V54.96ZM312.951 54L313.909 55.7558C315.417 54.9332 316.613 53.7463 317.483 52.2406L315.751 51.24L314.02 50.2394C313.503 51.1337 312.832 51.7868 311.994 52.2442L312.951 54ZM315.751 51.24L317.483 52.2406C318.378 50.6921 318.791 48.9363 318.791 47.04H316.791H314.791C314.791 48.3437 314.512 49.3879 314.02 50.2394L315.751 51.24ZM316.791 47.04H318.791C318.791 45.145 318.378 43.394 317.473 41.8625L315.751 42.88L314.029 43.8975C314.511 44.7127 314.791 45.735 314.791 47.04H316.791ZM315.751 42.88L317.5 41.9087C316.654 40.3871 315.464 39.1907 313.949 38.3642L312.991 40.12L312.034 41.8758C312.865 42.3293 313.515 42.9729 314.003 43.8513L315.751 42.88ZM312.991 40.12L313.979 38.3811C312.485 37.5318 310.834 37.12 309.071 37.12V39.12V41.12C310.189 41.12 311.151 41.3749 312.003 41.8589L312.991 40.12ZM309.071 39.12V37.12C307.289 37.12 305.624 37.5286 304.123 38.3811L305.111 40.12L306.099 41.8589C306.946 41.378 307.92 41.12 309.071 41.12V39.12ZM305.111 40.12L304.154 38.3642C302.645 39.1868 301.449 40.3737 300.58 41.8794L302.311 42.88L304.043 43.8806C304.56 42.9863 305.23 42.3332 306.069 41.8758L305.111 40.12ZM302.311 42.88L300.572 41.892C299.705 43.418 299.311 45.1581 299.311 47.04H301.311H303.311C303.311 45.7219 303.584 44.6887 304.05 43.868L302.311 42.88ZM301.311 47.04H299.311C299.311 48.9232 299.706 50.6683 300.563 52.2113L302.311 51.24L304.06 50.2687C303.583 49.4117 303.311 48.3568 303.311 47.04H301.311ZM302.311 51.24L300.58 52.2406C301.449 53.7463 302.645 54.9332 304.154 55.7558L305.111 54L306.069 52.2442C305.23 51.7868 304.56 51.1337 304.043 50.2394L302.311 51.24ZM305.111 54L304.17 55.7647C305.677 56.5683 307.323 56.96 309.071 56.96V54.96V52.96C307.94 52.96 306.946 52.7117 306.052 52.2353L305.111 54ZM326.823 33.04V31.04H324.823V33.04H326.823ZM346.663 33.04H348.663V31.04H346.663V33.04ZM346.663 39V41H348.663V39H346.663ZM333.903 39V37H331.903V39H333.903ZM333.903 44.24H331.903V46.24H333.903V44.24ZM343.223 44.24H345.223V42.24H343.223V44.24ZM343.223 49.8V51.8H345.223V49.8H343.223ZM333.903 49.8V47.8H331.903V49.8H333.903ZM333.903 61V63H335.903V61H333.903ZM326.823 61H324.823V63H326.823V61ZM326.823 33.04V35.04H346.663V33.04V31.04H326.823V33.04ZM346.663 33.04H344.663V39H346.663H348.663V33.04H346.663ZM346.663 39V37H333.903V39V41H346.663V39ZM333.903 39H331.903V44.24H333.903H335.903V39H333.903ZM333.903 44.24V46.24H343.223V44.24V42.24H333.903V44.24ZM343.223 44.24H341.223V49.8H343.223H345.223V44.24H343.223ZM343.223 49.8V47.8H333.903V49.8V51.8H343.223V49.8ZM333.903 49.8H331.903V61H333.903H335.903V49.8H333.903ZM333.903 61V59H326.823V61V63H333.903V61ZM326.823 61H328.823V33.04H326.823H324.823V61H326.823ZM348.659 33.04V31.04H346.659V33.04H348.659ZM368.499 33.04H370.499V31.04H368.499V33.04ZM368.499 39V41H370.499V39H368.499ZM355.739 39V37H353.739V39H355.739ZM355.739 44.24H353.739V46.24H355.739V44.24ZM365.059 44.24H367.059V42.24H365.059V44.24ZM365.059 49.8V51.8H367.059V49.8H365.059ZM355.739 49.8V47.8H353.739V49.8H355.739ZM355.739 55.04H353.739V57.04H355.739V55.04ZM368.499 55.04H370.499V53.04H368.499V55.04ZM368.499 61V63H370.499V61H368.499ZM348.659 61H346.659V63H348.659V61ZM348.659 33.04V35.04H368.499V33.04V31.04H348.659V33.04ZM368.499 33.04H366.499V39H368.499H370.499V33.04H368.499ZM368.499 39V37H355.739V39V41H368.499V39ZM355.739 39H353.739V44.24H355.739H357.739V39H355.739ZM355.739 44.24V46.24H365.059V44.24V42.24H355.739V44.24ZM365.059 44.24H363.059V49.8H365.059H367.059V44.24H365.059ZM365.059 49.8V47.8H355.739V49.8V51.8H365.059V49.8ZM355.739 49.8H353.739V55.04H355.739H357.739V49.8H355.739ZM355.739 55.04V57.04H368.499V55.04V53.04H355.739V55.04ZM368.499 55.04H366.499V61H368.499H370.499V55.04H368.499ZM368.499 61V59H348.659V61V63H368.499V61ZM348.659 61H350.659V33.04H348.659H346.659V61H348.659ZM371.316 33.04V31.04H369.316V33.04H371.316ZM391.556 35.52L390.219 37.0077L390.224 37.0124L390.23 37.0172L391.556 35.52ZM392.996 47.96L391.294 46.9084L392.996 47.96ZM389.156 51.24L388.357 49.4063L386.411 50.2538L387.373 52.1461L389.156 51.24ZM394.116 61V63H397.375L395.899 60.0939L394.116 61ZM386.836 61L385.052 61.9042L385.607 63H386.836V61ZM382.396 52.24L384.18 51.3358L383.624 50.24H382.396V52.24ZM378.396 52.24V50.24H376.396V52.24H378.396ZM378.396 61V63H380.396V61H378.396ZM371.316 61H369.316V63H371.316V61ZM385.916 45.48L387.051 47.1264L387.07 47.1134L387.089 47.0999L385.916 45.48ZM385.916 39.8L384.753 41.4275L384.786 41.4509L384.82 41.4729L385.916 39.8ZM378.396 39V37H376.396V39H378.396ZM378.396 46.28H376.396V48.28H378.396V46.28ZM371.316 33.04V35.04H383.876V33.04V31.04H371.316V33.04ZM383.876 33.04V35.04C386.826 35.04 388.852 35.7794 390.219 37.0077L391.556 35.52L392.892 34.0323C390.579 31.9539 387.485 31.04 383.876 31.04V33.04ZM391.556 35.52L390.23 37.0172C391.568 38.2023 392.356 39.9705 392.356 42.64H394.356H396.356C396.356 39.1229 395.277 36.1443 392.882 34.0228L391.556 35.52ZM394.356 42.64H392.356C392.356 44.4256 391.969 45.8174 391.294 46.9084L392.996 47.96L394.697 49.0116C395.836 47.1693 396.356 45.0144 396.356 42.64H394.356ZM392.996 47.96L391.294 46.9084C390.612 48.012 389.655 48.8411 388.357 49.4063L389.156 51.24L389.954 53.0737C391.963 52.1989 393.566 50.8413 394.697 49.0116L392.996 47.96ZM389.156 51.24L387.373 52.1461L392.333 61.9061L394.116 61L395.899 60.0939L390.939 50.3339L389.156 51.24ZM394.116 61V59H386.836V61V63H394.116V61ZM386.836 61L388.62 60.0958L384.18 51.3358L382.396 52.24L380.612 53.1442L385.052 61.9042L386.836 61ZM382.396 52.24V50.24H378.396V52.24V54.24H382.396V52.24ZM378.396 52.24H376.396V61H378.396H380.396V52.24H378.396ZM378.396 61V59H371.316V61V63H378.396V61ZM371.316 61H373.316V33.04H371.316H369.316V61H371.316ZM382.636 46.28V48.28C384.262 48.28 385.814 47.9793 387.051 47.1264L385.916 45.48L384.78 43.8336C384.47 44.0474 383.836 44.28 382.636 44.28V46.28ZM385.916 45.48L387.089 47.0999C388.569 46.0282 389.076 44.3419 389.076 42.64H387.076H385.076C385.076 43.6048 384.809 43.8118 384.743 43.8601L385.916 45.48ZM387.076 42.64H389.076C389.076 40.937 388.594 39.164 387.012 38.1271L385.916 39.8L384.82 41.4729C384.832 41.4809 384.877 41.5064 384.934 41.6462C385.001 41.8105 385.076 42.1193 385.076 42.64H387.076ZM385.916 39.8L387.078 38.1725C385.849 37.2944 384.272 37 382.636 37V39V41C383.879 41 384.489 41.239 384.753 41.4275L385.916 39.8ZM382.636 39V37H378.396V39V41H382.636V39ZM378.396 39H376.396V46.28H378.396H380.396V39H378.396ZM378.396 46.28V48.28H382.636V46.28V44.28H378.396V46.28ZM402.249 39H404.249V37H402.249V39ZM394.369 39H392.369V41H394.369V39ZM394.369 33.04V31.04H392.369V33.04H394.369ZM417.249 33.04H419.249V31.04H417.249V33.04ZM417.249 39V41H419.249V39H417.249ZM409.329 39V37H407.329V39H409.329ZM409.329 61V63H411.329V61H409.329ZM402.249 61H400.249V63H402.249V61ZM402.249 39V37H394.369V39V41H402.249V39ZM394.369 39H396.369V33.04H394.369H392.369V39H394.369ZM394.369 33.04V35.04H417.249V33.04V31.04H394.369V33.04ZM417.249 33.04H415.249V39H417.249H419.249V33.04H417.249ZM417.249 39V37H409.329V39V41H417.249V39ZM409.329 39H407.329V61H409.329H411.329V39H409.329ZM409.329 61V59H402.249V61V63H409.329V61ZM402.249 61H404.249V39H402.249H400.249V61H402.249ZM424.841 33.04V31.04H423.487L422.984 32.2963L424.841 33.04ZM431.801 33.04L433.658 32.2986L433.156 31.04H431.801V33.04ZM442.961 61V63H445.912L444.818 60.2586L442.961 61ZM435.721 61L433.857 61.7249L434.352 63H435.721V61ZM433.481 55.24L435.345 54.5151L434.849 53.24H433.481V55.24ZM423.161 55.24V53.24H421.792L421.297 54.5151L423.161 55.24ZM420.921 61V63H422.289L422.785 61.7249L420.921 61ZM413.641 61L411.784 60.2563L410.685 63H413.641V61ZM431.721 49.8V51.8H434.571L433.601 49.1197L431.721 49.8ZM428.321 40.4L430.201 39.7197L428.332 34.5504L426.442 39.7127L428.321 40.4ZM424.881 49.8L423.002 49.1127L422.019 51.8H424.881V49.8ZM424.841 33.04V35.04H431.801V33.04V31.04H424.841V33.04ZM431.801 33.04L429.943 33.7814L441.103 61.7414L442.961 61L444.818 60.2586L433.658 32.2986L431.801 33.04ZM442.961 61V59H435.721V61V63H442.961V61ZM435.721 61L437.585 60.2751L435.345 54.5151L433.481 55.24L431.617 55.9649L433.857 61.7249L435.721 61ZM433.481 55.24V53.24H423.161V55.24V57.24H433.481V55.24ZM423.161 55.24L421.297 54.5151L419.057 60.2751L420.921 61L422.785 61.7249L425.025 55.9649L423.161 55.24ZM420.921 61V59H413.641V61V63H420.921V61ZM413.641 61L415.497 61.7437L426.697 33.7837L424.841 33.04L422.984 32.2963L411.784 60.2563L413.641 61ZM431.721 49.8L433.601 49.1197L430.201 39.7197L428.321 40.4L426.44 41.0803L429.84 50.4803L431.721 49.8ZM428.321 40.4L426.442 39.7127L423.002 49.1127L424.881 49.8L426.759 50.4873L430.199 41.0873L428.321 40.4ZM424.881 49.8V51.8H431.721V49.8V47.8H424.881V49.8Z" fill="white" fill-opacity="0.9" mask="url(#path-6-outside-3_712_1164)"/>
</svg>
