<svg width="214" height="165" viewBox="0 0 214 165" fill="none" xmlns="http://www.w3.org/2000/svg">
<path d="M1.62 134.757H12.708C15.636 134.757 17.976 135.525 19.728 137.061C21.48 138.597 22.356 140.745 22.356 143.505C22.356 146.337 21.48 148.533 19.728 150.093C18 151.629 15.66 152.397 12.708 152.397H7.992V159.921H1.62V134.757ZM11.7 147.033C12.972 147.033 13.968 146.769 14.688 146.241C15.432 145.713 15.804 144.801 15.804 143.505C15.804 142.209 15.444 141.321 14.724 140.841C14.004 140.361 12.996 140.121 11.7 140.121H7.992V147.033H11.7ZM24.5067 134.757H35.8107C38.7627 134.757 41.0667 135.501 42.7227 136.989C44.4027 138.477 45.2427 140.613 45.2427 143.397C45.2427 145.269 44.8347 146.865 44.0187 148.185C43.2027 149.505 42.0507 150.489 40.5627 151.137L45.0267 159.921H38.4747L34.4787 152.037H30.8787V159.921H24.5067V134.757ZM34.6947 146.673C35.9667 146.673 36.9507 146.433 37.6467 145.953C38.3427 145.449 38.6907 144.597 38.6907 143.397C38.6907 142.149 38.3427 141.297 37.6467 140.841C36.9747 140.361 35.9907 140.121 34.6947 140.121H30.8787V146.673H34.6947ZM47.7802 134.757H54.1522V159.921H47.7802V134.757ZM57.3778 134.757H63.4978L70.7698 150.345L78.0778 134.757H84.1618V159.921H78.2218V147.285L72.2098 159.921H69.3298L63.3538 147.285V159.921H57.3778V134.757ZM95.8472 134.757H102.111L112.155 159.921H105.639L103.623 154.737H94.3352L92.3192 159.921H85.7672L95.8472 134.757ZM102.039 149.841L98.9792 141.381L95.8832 149.841H102.039ZM108.759 134.757H115.563L121.971 151.497L128.379 134.757H135.147L125.103 159.921H118.839L108.759 134.757ZM137.675 134.757H155.531V140.121H144.047V144.837H152.435V149.841H144.047V154.557H155.531V159.921H137.675V134.757ZM158.065 134.757H169.369C172.321 134.757 174.625 135.501 176.281 136.989C177.961 138.477 178.801 140.613 178.801 143.397C178.801 145.269 178.393 146.865 177.577 148.185C176.761 149.505 175.609 150.489 174.121 151.137L178.585 159.921H172.033L168.037 152.037H164.437V159.921H158.065V134.757ZM168.253 146.673C169.525 146.673 170.509 146.433 171.205 145.953C171.901 145.449 172.249 144.597 172.249 143.397C172.249 142.149 171.901 141.297 171.205 140.841C170.533 140.361 169.549 140.121 168.253 140.121H164.437V146.673H168.253ZM189.082 134.757H195.346L205.39 159.921H198.874L196.858 154.737H187.57L185.554 159.921H179.002L189.082 134.757ZM195.274 149.841L192.214 141.381L189.118 149.841H195.274Z" fill="white"/>
<path d="M4.38 106.403H0.3V103.863H11.5V106.403H7.42V117.843H4.38V106.403ZM12.8369 103.863H22.5369V106.403H15.8769V109.643H20.7769V112.083H15.8769V115.303H22.5369V117.843H12.8369V103.863ZM24.0088 103.863H27.0088L31.3088 113.223L35.6288 103.863H38.6088V117.843H35.7088V109.903L32.0088 117.843H30.6088L26.9288 109.903V117.843H24.0088V103.863ZM40.708 103.863H46.588C48.1746 103.863 49.4413 104.283 50.388 105.123C51.3346 105.949 51.808 107.103 51.808 108.583C51.808 110.103 51.3346 111.269 50.388 112.083C49.4546 112.896 48.188 113.303 46.588 113.303H43.748V117.843H40.708V103.863ZM46.148 110.763C47.868 110.763 48.728 110.036 48.728 108.583C48.728 107.769 48.4946 107.203 48.028 106.883C47.5746 106.563 46.948 106.403 46.148 106.403H43.748V110.763H46.148ZM59.995 118.143C58.595 118.143 57.3217 117.836 56.175 117.223C55.0417 116.609 54.1483 115.756 53.495 114.663C52.8417 113.556 52.515 112.289 52.515 110.863C52.515 109.436 52.8417 108.169 53.495 107.063C54.1483 105.956 55.0417 105.096 56.175 104.483C57.3217 103.869 58.595 103.563 59.995 103.563C61.395 103.563 62.655 103.869 63.775 104.483C64.9083 105.096 65.8017 105.956 66.455 107.063C67.1083 108.169 67.435 109.436 67.435 110.863C67.435 112.289 67.1083 113.556 66.455 114.663C65.8017 115.756 64.9083 116.609 63.775 117.223C62.655 117.836 61.395 118.143 59.995 118.143ZM59.995 115.343C60.795 115.343 61.5217 115.163 62.175 114.803C62.8417 114.429 63.3683 113.909 63.755 113.243C64.1417 112.563 64.335 111.769 64.335 110.863C64.335 109.969 64.1417 109.189 63.755 108.523C63.3817 107.843 62.8617 107.323 62.195 106.963C61.5417 106.589 60.8083 106.403 59.995 106.403C59.1683 106.403 58.4217 106.589 57.755 106.963C57.1017 107.323 56.5817 107.843 56.195 108.523C55.8083 109.189 55.615 109.969 55.615 110.863C55.615 111.769 55.8083 112.563 56.195 113.243C56.5817 113.909 57.1083 114.429 57.775 114.803C58.4417 115.163 59.1817 115.343 59.995 115.343ZM69.1064 103.863H75.1664C76.7531 103.863 77.9864 104.263 78.8664 105.063C79.7597 105.849 80.2064 106.989 80.2064 108.483C80.2064 109.523 79.9664 110.409 79.4864 111.143C79.0064 111.863 78.3264 112.389 77.4464 112.723L80.1064 117.843H76.9864L74.5264 113.103H72.1464V117.843H69.1064V103.863ZM74.6264 110.563C75.3997 110.563 76.0064 110.396 76.4464 110.063C76.8997 109.729 77.1264 109.203 77.1264 108.483C77.1264 107.723 76.9064 107.189 76.4664 106.883C76.0264 106.563 75.4131 106.403 74.6264 106.403H72.1464V110.563H74.6264ZM86.2009 103.863H89.1809L94.7609 117.843H91.6609L90.4609 114.803H84.9209L83.7209 117.843H80.6009L86.2009 103.863ZM89.6609 112.383L87.6809 107.063L85.7009 112.383H89.6609ZM96.4502 103.863H101.31C102.83 103.863 104.157 104.143 105.29 104.703C106.423 105.263 107.297 106.063 107.91 107.103C108.523 108.143 108.83 109.369 108.83 110.783C108.83 113.103 108.15 114.863 106.79 116.063C105.443 117.249 103.563 117.843 101.15 117.843H96.4502V103.863ZM101.31 115.303C102.737 115.303 103.83 114.903 104.59 114.103C105.35 113.303 105.73 112.196 105.73 110.783C105.73 109.943 105.563 109.189 105.23 108.523C104.897 107.856 104.41 107.336 103.77 106.963C103.13 106.589 102.377 106.403 101.51 106.403H99.4902V115.303H101.31ZM114.404 103.863H117.384L122.964 117.843H119.864L118.664 114.803H113.124L111.924 117.843H108.804L114.404 103.863ZM117.864 112.383L115.884 107.063L113.904 112.383H117.864Z" fill="white"/>
<path d="M2.025 20.2304H9.9L21.465 38.9504V20.2304H29.43V51.6854H21.6L9.99 32.9204V51.6854H2.025V20.2304ZM47.5748 52.3604C42.8348 52.3604 39.2648 51.1004 36.8648 48.5804C34.4648 46.0304 33.2648 42.6704 33.2648 38.5004V20.2304H41.2298V38.5904C41.2298 40.6904 41.7848 42.2804 42.8948 43.3604C44.0348 44.4404 45.5948 44.9804 47.5748 44.9804C49.5548 44.9804 51.0998 44.4404 52.2098 43.3604C53.3198 42.2804 53.8748 40.6904 53.8748 38.5904V20.2304H61.8398V38.5004C61.8398 42.7004 60.6398 46.0604 58.2398 48.5804C55.8698 51.1004 52.3148 52.3604 47.5748 52.3604ZM65.6578 20.2304H87.9778V26.9354H73.6228V32.8304H84.1078V39.0854H73.6228V44.9804H87.9778V51.6854H65.6578V20.2304ZM90.0264 20.2304H98.5314L106.541 41.1554L114.551 20.2304H123.011L110.456 51.6854H102.626L90.0264 20.2304ZM139.246 52.3604C136.066 52.3604 133.186 51.6704 130.606 50.2904C128.056 48.9104 126.031 46.9904 124.531 44.5304C123.061 42.0404 122.326 39.1904 122.326 35.9804C122.326 32.7704 123.061 29.9204 124.531 27.4304C126.031 24.9404 128.056 23.0054 130.606 21.6254C133.186 20.2454 136.066 19.5554 139.246 19.5554C142.396 19.5554 145.246 20.2454 147.796 21.6254C150.376 23.0054 152.401 24.9404 153.871 27.4304C155.341 29.9204 156.076 32.7704 156.076 35.9804C156.076 39.1904 155.341 42.0404 153.871 44.5304C152.401 46.9904 150.376 48.9104 147.796 50.2904C145.246 51.6704 142.396 52.3604 139.246 52.3604ZM139.246 44.8904C140.836 44.8904 142.291 44.5304 143.611 43.8104C144.931 43.0904 145.981 42.0554 146.761 40.7054C147.541 39.3554 147.931 37.7804 147.931 35.9804C147.931 34.1804 147.541 32.6204 146.761 31.3004C146.011 29.9504 144.976 28.9154 143.656 28.1954C142.336 27.4454 140.866 27.0704 139.246 27.0704C137.596 27.0704 136.111 27.4454 134.791 28.1954C133.471 28.9154 132.421 29.9504 131.641 31.3004C130.891 32.6204 130.516 34.1804 130.516 35.9804C130.516 37.7804 130.891 39.3554 131.641 40.7054C132.421 42.0554 133.471 43.0904 134.791 43.8104C136.141 44.5304 137.626 44.8904 139.246 44.8904ZM167.885 52.3604C165.905 52.3604 163.94 52.1654 161.99 51.7754C160.04 51.4154 158.435 50.9054 157.175 50.2454V43.0904C158.795 43.9304 160.475 44.5604 162.215 44.9804C163.985 45.4004 165.665 45.6104 167.255 45.6104C168.725 45.6104 169.835 45.3854 170.585 44.9354C171.335 44.4854 171.71 43.8404 171.71 43.0004C171.71 42.3704 171.5 41.8304 171.08 41.3804C170.69 40.9004 170.105 40.4654 169.325 40.0754C168.545 39.6854 167.33 39.1454 165.68 38.4554C162.77 37.2254 160.655 35.8604 159.335 34.3604C158.015 32.8604 157.355 31.0154 157.355 28.8254C157.355 27.0254 157.85 25.4204 158.84 24.0104C159.86 22.6004 161.27 21.5054 163.07 20.7254C164.87 19.9454 166.94 19.5554 169.28 19.5554C171.2 19.5554 172.91 19.7054 174.41 20.0054C175.91 20.3054 177.35 20.7854 178.73 21.4454V28.4204C176.09 27.0404 173.435 26.3504 170.765 26.3504C169.325 26.3504 168.17 26.5904 167.3 27.0704C166.46 27.5204 166.04 28.1804 166.04 29.0504C166.04 29.9204 166.475 30.6254 167.345 31.1654C168.215 31.7054 169.82 32.4404 172.16 33.3704C174.29 34.2404 175.94 35.0954 177.11 35.9354C178.31 36.7754 179.18 37.7504 179.72 38.8604C180.26 39.9704 180.53 41.3804 180.53 43.0904C180.53 46.0004 179.465 48.2804 177.335 49.9304C175.235 51.5504 172.085 52.3604 167.885 52.3604ZM2.025 60.2304H9.99V91.6854H2.025V60.2304ZM14.0221 60.2304H21.8971L33.4621 78.9504V60.2304H41.4271V91.6854H33.5971L21.9871 72.9204V91.6854H14.0221V60.2304ZM61.7319 92.3604C58.3119 92.3604 55.2969 91.7004 52.6869 90.3804C50.1069 89.0604 48.1119 87.1704 46.7019 84.7104C45.2919 82.2204 44.5869 79.3104 44.5869 75.9804C44.5869 72.6504 45.2919 69.7554 46.7019 67.2954C48.1119 64.8054 50.1069 62.9004 52.6869 61.5804C55.2969 60.2304 58.3119 59.5554 61.7319 59.5554C64.0119 59.5554 66.0219 59.7804 67.7619 60.2304C69.5319 60.6504 71.1669 61.3404 72.6669 62.3004V69.8604C71.3469 68.8104 69.8469 68.0604 68.1669 67.6104C66.5169 67.1304 64.6119 66.8904 62.4519 66.8904C60.5919 66.8904 58.9269 67.2654 57.4569 68.0154C56.0169 68.7354 54.8769 69.7854 54.0369 71.1654C53.1969 72.5454 52.7769 74.1504 52.7769 75.9804C52.7769 78.8304 53.6019 81.0804 55.2519 82.7304C56.9319 84.3804 59.1969 85.2054 62.0469 85.2054C63.6369 85.2054 64.9719 84.9354 66.0519 84.3954V79.3554H61.2369V73.7754H73.6119V89.4354C70.4019 91.3854 66.4419 92.3604 61.7319 92.3604ZM76.776 60.2304H90.906C94.596 60.2304 97.476 61.1604 99.546 63.0204C101.646 64.8804 102.696 67.5504 102.696 71.0304C102.696 73.3704 102.186 75.3654 101.166 77.0154C100.146 78.6654 98.706 79.8954 96.846 80.7054L102.426 91.6854H94.236L89.241 81.8304H84.741V91.6854H76.776V60.2304ZM89.511 75.1254C91.101 75.1254 92.331 74.8254 93.201 74.2254C94.071 73.5954 94.506 72.5304 94.506 71.0304C94.506 69.4704 94.071 68.4054 93.201 67.8354C92.361 67.2354 91.131 66.9354 89.511 66.9354H84.741V75.1254H89.511ZM105.868 60.2304H128.188V66.9354H113.833V72.8304H124.318V79.0854H113.833V84.9804H128.188V91.6854H105.868V60.2304ZM141.166 92.3604C139.186 92.3604 137.221 92.1654 135.271 91.7754C133.321 91.4154 131.716 90.9054 130.456 90.2454V83.0904C132.076 83.9304 133.756 84.5604 135.496 84.9804C137.266 85.4004 138.946 85.6104 140.536 85.6104C142.006 85.6104 143.116 85.3854 143.866 84.9354C144.616 84.4854 144.991 83.8404 144.991 83.0004C144.991 82.3704 144.781 81.8304 144.361 81.3804C143.971 80.9004 143.386 80.4654 142.606 80.0754C141.826 79.6854 140.611 79.1454 138.961 78.4554C136.051 77.2254 133.936 75.8604 132.616 74.3604C131.296 72.8604 130.636 71.0154 130.636 68.8254C130.636 67.0254 131.131 65.4204 132.121 64.0104C133.141 62.6004 134.551 61.5054 136.351 60.7254C138.151 59.9454 140.221 59.5554 142.561 59.5554C144.481 59.5554 146.191 59.7054 147.691 60.0054C149.191 60.3054 150.631 60.7854 152.011 61.4454V68.4204C149.371 67.0404 146.716 66.3504 144.046 66.3504C142.606 66.3504 141.451 66.5904 140.581 67.0704C139.741 67.5204 139.321 68.1804 139.321 69.0504C139.321 69.9204 139.756 70.6254 140.626 71.1654C141.496 71.7054 143.101 72.4404 145.441 73.3704C147.571 74.2404 149.221 75.0954 150.391 75.9354C151.591 76.7754 152.461 77.7504 153.001 78.8604C153.541 79.9704 153.811 81.3804 153.811 83.0904C153.811 86.0004 152.746 88.2804 150.616 89.9304C148.516 91.5504 145.366 92.3604 141.166 92.3604ZM172.996 92.3604C169.816 92.3604 166.936 91.6704 164.356 90.2904C161.806 88.9104 159.781 86.9904 158.281 84.5304C156.811 82.0404 156.076 79.1904 156.076 75.9804C156.076 72.7704 156.811 69.9204 158.281 67.4304C159.781 64.9404 161.806 63.0054 164.356 61.6254C166.936 60.2454 169.816 59.5554 172.996 59.5554C176.146 59.5554 178.996 60.2454 181.546 61.6254C184.126 63.0054 186.151 64.9404 187.621 67.4304C189.091 69.9204 189.826 72.7704 189.826 75.9804C189.826 79.1904 189.091 82.0404 187.621 84.5304C186.151 86.9904 184.126 88.9104 181.546 90.2904C178.996 91.6704 176.146 92.3604 172.996 92.3604ZM172.996 84.8904C174.586 84.8904 176.041 84.5304 177.361 83.8104C178.681 83.0904 179.731 82.0554 180.511 80.7054C181.291 79.3554 181.681 77.7804 181.681 75.9804C181.681 74.1804 181.291 72.6204 180.511 71.3004C179.761 69.9504 178.726 68.9154 177.406 68.1954C176.086 67.4454 174.616 67.0704 172.996 67.0704C171.346 67.0704 169.861 67.4454 168.541 68.1954C167.221 68.9154 166.171 69.9504 165.391 71.3004C164.641 72.6204 164.266 74.1804 164.266 75.9804C164.266 77.7804 164.641 79.3554 165.391 80.7054C166.171 82.0554 167.221 83.0904 168.541 83.8104C169.891 84.5304 171.376 84.8904 172.996 84.8904ZM201.635 92.3604C199.655 92.3604 197.69 92.1654 195.74 91.7754C193.79 91.4154 192.185 90.9054 190.925 90.2454V83.0904C192.545 83.9304 194.225 84.5604 195.965 84.9804C197.735 85.4004 199.415 85.6104 201.005 85.6104C202.475 85.6104 203.585 85.3854 204.335 84.9354C205.085 84.4854 205.46 83.8404 205.46 83.0004C205.46 82.3704 205.25 81.8304 204.83 81.3804C204.44 80.9004 203.855 80.4654 203.075 80.0754C202.295 79.6854 201.08 79.1454 199.43 78.4554C196.52 77.2254 194.405 75.8604 193.085 74.3604C191.765 72.8604 191.105 71.0154 191.105 68.8254C191.105 67.0254 191.6 65.4204 192.59 64.0104C193.61 62.6004 195.02 61.5054 196.82 60.7254C198.62 59.9454 200.69 59.5554 203.03 59.5554C204.95 59.5554 206.66 59.7054 208.16 60.0054C209.66 60.3054 211.1 60.7854 212.48 61.4454V68.4204C209.84 67.0404 207.185 66.3504 204.515 66.3504C203.075 66.3504 201.92 66.5904 201.05 67.0704C200.21 67.5204 199.79 68.1804 199.79 69.0504C199.79 69.9204 200.225 70.6254 201.095 71.1654C201.965 71.7054 203.57 72.4404 205.91 73.3704C208.04 74.2404 209.69 75.0954 210.86 75.9354C212.06 76.7754 212.93 77.7504 213.47 78.8604C214.01 79.9704 214.28 81.3804 214.28 83.0904C214.28 86.0004 213.215 88.2804 211.085 89.9304C208.985 91.5504 205.835 92.3604 201.635 92.3604Z" fill="white"/>
</svg>
