<svg width="154" height="34" viewBox="0 0 154 34" fill="none" xmlns="http://www.w3.org/2000/svg">
<mask id="path-1-outside-1_172_997" maskUnits="userSpaceOnUse" x="0" y="0" width="154" height="34" fill="black">
<rect fill="white" width="154" height="34"/>
<path d="M17.0713 31.6C14.2446 31.6 11.6846 30.9867 9.39125 29.76C7.12458 28.5333 5.32458 26.8267 3.99125 24.64C2.68458 22.4267 2.03125 19.8933 2.03125 17.04C2.03125 14.1867 2.68458 11.6533 3.99125 9.44C5.32458 7.22667 7.12458 5.50667 9.39125 4.28C11.6846 3.05333 14.2446 2.44 17.0713 2.44C19.8713 2.44 22.4046 3.05333 24.6713 4.28C26.9646 5.50667 28.7646 7.22667 30.0713 9.44C31.3779 11.6533 32.0313 14.1867 32.0313 17.04C32.0313 19.8933 31.3779 22.4267 30.0713 24.64C28.7646 26.8267 26.9646 28.5333 24.6713 29.76C22.4046 30.9867 19.8713 31.6 17.0713 31.6ZM17.0713 24.96C18.4846 24.96 19.7779 24.64 20.9513 24C22.1246 23.36 23.0579 22.44 23.7513 21.24C24.4446 20.04 24.7913 18.64 24.7913 17.04C24.7913 15.44 24.4446 14.0533 23.7513 12.88C23.0846 11.68 22.1646 10.76 20.9913 10.12C19.8179 9.45333 18.5113 9.12 17.0713 9.12C15.6046 9.12 14.2846 9.45333 13.1113 10.12C11.9379 10.76 11.0046 11.68 10.3113 12.88C9.64458 14.0533 9.31125 15.44 9.31125 17.04C9.31125 18.64 9.64458 20.04 10.3113 21.24C11.0046 22.44 11.9379 23.36 13.1113 24C14.3113 24.64 15.6313 24.96 17.0713 24.96ZM34.8234 3.04H54.6634V9H41.9034V14.24H51.2234V19.8H41.9034V31H34.8234V3.04ZM56.6594 3.04H76.4994V9H63.7394V14.24H73.0594V19.8H63.7394V25.04H76.4994V31H56.6594V3.04ZM79.3156 3.04H91.8756C95.1556 3.04 97.7156 3.86666 99.5556 5.52C101.422 7.17333 102.356 9.54667 102.356 12.64C102.356 14.72 101.902 16.4933 100.996 17.96C100.089 19.4267 98.809 20.52 97.1556 21.24L102.116 31H94.8356L90.3956 22.24H86.3956V31H79.3156V3.04ZM90.6356 16.28C92.049 16.28 93.1423 16.0133 93.9156 15.48C94.689 14.92 95.0756 13.9733 95.0756 12.64C95.0756 11.2533 94.689 10.3067 93.9156 9.8C93.169 9.26667 92.0756 9 90.6356 9H86.3956V16.28H90.6356ZM110.249 9H102.369V3.04H125.249V9H117.329V31H110.249V9ZM132.841 3.04H139.801L150.961 31H143.721L141.481 25.24H131.161L128.921 31H121.641L132.841 3.04ZM139.721 19.8L136.321 10.4L132.881 19.8H139.721Z"/>
</mask>
<path d="M9.39125 29.76L8.43934 31.519L8.44795 31.5236L9.39125 29.76ZM3.99125 24.64L2.26898 25.6568L2.27623 25.669L2.28366 25.6812L3.99125 24.64ZM3.99125 9.44L2.27809 8.40797L2.2735 8.41558L2.26898 8.42324L3.99125 9.44ZM9.39125 4.28L8.44793 2.51641L8.43935 2.52105L9.39125 4.28ZM24.6713 4.28L23.7193 6.03896L23.7279 6.04357L24.6713 4.28ZM30.0713 9.44L28.349 10.4568L30.0713 9.44ZM30.0713 24.64L31.7881 25.6659L31.7935 25.6568L30.0713 24.64ZM24.6713 29.76L23.7279 27.9964L23.7194 28.0011L24.6713 29.76ZM20.9513 24L19.9935 22.2442L20.9513 24ZM23.7513 21.24L22.0195 20.2394H22.0195L23.7513 21.24ZM23.7513 12.88L22.0029 13.8513L22.0159 13.8745L22.0294 13.8975L23.7513 12.88ZM20.9913 10.12L20.0032 11.8589L20.0183 11.8675L20.0335 11.8758L20.9913 10.12ZM13.1113 10.12L14.069 11.8758L14.0842 11.8675L14.0993 11.8589L13.1113 10.12ZM10.3113 12.88L8.57952 11.8794L8.57591 11.8857L8.57234 11.892L10.3113 12.88ZM10.3113 21.24L8.56294 22.2113L8.57111 22.226L8.57952 22.2406L10.3113 21.24ZM13.1113 24L12.1535 25.7558L12.1618 25.7603L12.1701 25.7647L13.1113 24ZM17.0713 31.6V29.6C14.5444 29.6 12.3129 29.0546 10.3346 27.9964L9.39125 29.76L8.44795 31.5236C11.0562 32.9187 13.9448 33.6 17.0713 33.6V31.6ZM9.39125 29.76L10.3432 28.0011C8.38532 26.9415 6.84692 25.4816 5.69884 23.5988L3.99125 24.64L2.28366 25.6812C3.80225 28.1717 5.86385 30.1251 8.43935 31.5189L9.39125 29.76ZM3.99125 24.64L5.71352 23.6232C4.60819 21.7509 4.03125 19.5761 4.03125 17.04H2.03125H0.03125C0.03125 20.2106 0.760981 23.1024 2.26898 25.6568L3.99125 24.64ZM2.03125 17.04H4.03125C4.03125 14.5039 4.60819 12.3291 5.71352 10.4568L3.99125 9.44L2.26898 8.42324C0.760981 10.9776 0.03125 13.8694 0.03125 17.04H2.03125ZM3.99125 9.44L5.70441 10.472C6.85395 8.56379 8.39144 7.09516 10.3432 6.03894L9.39125 4.28L8.43935 2.52105C5.85773 3.91817 3.79522 5.88953 2.27809 8.40797L3.99125 9.44ZM9.39125 4.28L10.3346 6.04357C12.3129 4.98536 14.5444 4.44 17.0713 4.44V2.44V0.439999C13.9448 0.439999 11.0562 1.1213 8.44795 2.51643L9.39125 4.28ZM17.0713 2.44V4.44C19.5683 4.44 21.7699 4.98393 23.7194 6.03894L24.6713 4.28L25.6231 2.52105C23.0393 1.12273 20.1742 0.439999 17.0713 0.439999V2.44ZM24.6713 4.28L23.7279 6.04357C25.7022 7.09954 27.231 8.56297 28.349 10.4568L30.0713 9.44L31.7935 8.42324C30.2982 5.89037 28.227 3.91379 25.6146 2.51643L24.6713 4.28ZM30.0713 9.44L28.349 10.4568C29.4543 12.3291 30.0313 14.5039 30.0313 17.04H32.0313H34.0312C34.0312 13.8694 33.3015 10.9776 31.7935 8.42324L30.0713 9.44ZM32.0313 17.04H30.0313C30.0313 19.5761 29.4543 21.7509 28.349 23.6232L30.0713 24.64L31.7935 25.6568C33.3015 23.1024 34.0312 20.2106 34.0312 17.04H32.0313ZM30.0713 24.64L28.3544 23.6141C27.238 25.4824 25.7084 26.9371 23.7279 27.9964L24.6713 29.76L25.6146 31.5236C28.2208 30.1295 30.2912 28.1709 31.7881 25.6659L30.0713 24.64ZM24.6713 29.76L23.7194 28.0011C21.7699 29.0561 19.5683 29.6 17.0713 29.6V31.6V33.6C20.1742 33.6 23.0393 32.9173 25.6231 31.5189L24.6713 29.76ZM17.0713 24.96V26.96C18.7993 26.96 20.4249 26.5653 21.909 25.7558L20.9513 24L19.9935 22.2442C19.131 22.7147 18.1698 22.96 17.0713 22.96V24.96ZM20.9513 24L21.909 25.7558C23.417 24.9332 24.613 23.7463 25.483 22.2406L23.7513 21.24L22.0195 20.2394C21.5028 21.1337 20.8321 21.7868 19.9935 22.2442L20.9513 24ZM23.7513 21.24L25.483 22.2406C26.3777 20.6921 26.7913 18.9363 26.7913 17.04H24.7913H22.7913C22.7913 18.3437 22.5115 19.3879 22.0195 20.2394L23.7513 21.24ZM24.7913 17.04H26.7913C26.7913 15.145 26.3781 13.394 25.4731 11.8625L23.7513 12.88L22.0294 13.8975C22.5111 14.7127 22.7913 15.735 22.7913 17.04H24.7913ZM23.7513 12.88L25.4996 11.9087C24.6542 10.3871 23.4642 9.19069 21.949 8.36421L20.9913 10.12L20.0335 11.8758C20.865 12.3293 21.5149 12.9729 22.0029 13.8513L23.7513 12.88ZM20.9913 10.12L21.9793 8.38109C20.4845 7.53181 18.8336 7.12 17.0713 7.12V9.12V11.12C18.1889 11.12 19.1513 11.3749 20.0032 11.8589L20.9913 10.12ZM17.0713 9.12V7.12C15.2891 7.12 13.6236 7.52863 12.1232 8.38109L13.1113 10.12L14.0993 11.8589C14.9456 11.378 15.92 11.12 17.0713 11.12V9.12ZM13.1113 10.12L12.1535 8.36421C10.6455 9.18679 9.44949 10.3737 8.57952 11.8794L10.3113 12.88L12.043 13.8806C12.5597 12.9863 13.2304 12.3332 14.069 11.8758L13.1113 10.12ZM10.3113 12.88L8.57234 11.892C7.70528 13.418 7.31125 15.1581 7.31125 17.04H9.31125H11.3113C11.3113 15.7219 11.5839 14.6887 12.0502 13.868L10.3113 12.88ZM9.31125 17.04H7.31125C7.31125 18.9232 7.70572 20.6683 8.56294 22.2113L10.3113 21.24L12.0596 20.2687C11.5834 19.4117 11.3113 18.3568 11.3113 17.04H9.31125ZM10.3113 21.24L8.57952 22.2406C9.44949 23.7463 10.6455 24.9332 12.1535 25.7558L13.1113 24L14.069 22.2442C13.2304 21.7868 12.5597 21.1337 12.043 20.2394L10.3113 21.24ZM13.1113 24L12.1701 25.7647C13.6768 26.5683 15.3229 26.96 17.0713 26.96V24.96V22.96C15.9396 22.96 14.9457 22.7117 14.0524 22.2353L13.1113 24ZM34.8234 3.04V1.04H32.8234V3.04H34.8234ZM54.6634 3.04H56.6634V1.04H54.6634V3.04ZM54.6634 9V11H56.6634V9H54.6634ZM41.9034 9V7H39.9034V9H41.9034ZM41.9034 14.24H39.9034V16.24H41.9034V14.24ZM51.2234 14.24H53.2234V12.24H51.2234V14.24ZM51.2234 19.8V21.8H53.2234V19.8H51.2234ZM41.9034 19.8V17.8H39.9034V19.8H41.9034ZM41.9034 31V33H43.9034V31H41.9034ZM34.8234 31H32.8234V33H34.8234V31ZM34.8234 3.04V5.04H54.6634V3.04V1.04H34.8234V3.04ZM54.6634 3.04H52.6634V9H54.6634H56.6634V3.04H54.6634ZM54.6634 9V7H41.9034V9V11H54.6634V9ZM41.9034 9H39.9034V14.24H41.9034H43.9034V9H41.9034ZM41.9034 14.24V16.24H51.2234V14.24V12.24H41.9034V14.24ZM51.2234 14.24H49.2234V19.8H51.2234H53.2234V14.24H51.2234ZM51.2234 19.8V17.8H41.9034V19.8V21.8H51.2234V19.8ZM41.9034 19.8H39.9034V31H41.9034H43.9034V19.8H41.9034ZM41.9034 31V29H34.8234V31V33H41.9034V31ZM34.8234 31H36.8234V3.04H34.8234H32.8234V31H34.8234ZM56.6594 3.04V1.04H54.6594V3.04H56.6594ZM76.4994 3.04H78.4994V1.04H76.4994V3.04ZM76.4994 9V11H78.4994V9H76.4994ZM63.7394 9V7H61.7394V9H63.7394ZM63.7394 14.24H61.7394V16.24H63.7394V14.24ZM73.0594 14.24H75.0594V12.24H73.0594V14.24ZM73.0594 19.8V21.8H75.0594V19.8H73.0594ZM63.7394 19.8V17.8H61.7394V19.8H63.7394ZM63.7394 25.04H61.7394V27.04H63.7394V25.04ZM76.4994 25.04H78.4994V23.04H76.4994V25.04ZM76.4994 31V33H78.4994V31H76.4994ZM56.6594 31H54.6594V33H56.6594V31ZM56.6594 3.04V5.04H76.4994V3.04V1.04H56.6594V3.04ZM76.4994 3.04H74.4994V9H76.4994H78.4994V3.04H76.4994ZM76.4994 9V7H63.7394V9V11H76.4994V9ZM63.7394 9H61.7394V14.24H63.7394H65.7394V9H63.7394ZM63.7394 14.24V16.24H73.0594V14.24V12.24H63.7394V14.24ZM73.0594 14.24H71.0594V19.8H73.0594H75.0594V14.24H73.0594ZM73.0594 19.8V17.8H63.7394V19.8V21.8H73.0594V19.8ZM63.7394 19.8H61.7394V25.04H63.7394H65.7394V19.8H63.7394ZM63.7394 25.04V27.04H76.4994V25.04V23.04H63.7394V25.04ZM76.4994 25.04H74.4994V31H76.4994H78.4994V25.04H76.4994ZM76.4994 31V29H56.6594V31V33H76.4994V31ZM56.6594 31H58.6594V3.04H56.6594H54.6594V31H56.6594ZM79.3156 3.04V1.04H77.3156V3.04H79.3156ZM99.5556 5.52L98.2189 7.00766L98.2242 7.01244L98.2296 7.01718L99.5556 5.52ZM100.996 17.96L99.2944 16.9084L100.996 17.96ZM97.1556 21.24L96.3571 19.4063L94.411 20.2538L95.3727 22.1461L97.1556 21.24ZM102.116 31V33H105.375L103.899 30.0939L102.116 31ZM94.8356 31L93.0517 31.9042L93.6071 33H94.8356V31ZM90.3956 22.24L92.1796 21.3358L91.6242 20.24H90.3956V22.24ZM86.3956 22.24V20.24H84.3956V22.24H86.3956ZM86.3956 31V33H88.3956V31H86.3956ZM79.3156 31H77.3156V33H79.3156V31ZM93.9156 15.48L95.0511 17.1264L95.07 17.1134L95.0886 17.0999L93.9156 15.48ZM93.9156 9.8L92.7532 11.4275L92.7859 11.4509L92.8196 11.4729L93.9156 9.8ZM86.3956 9V7H84.3956V9H86.3956ZM86.3956 16.28H84.3956V18.28H86.3956V16.28ZM79.3156 3.04V5.04H91.8756V3.04V1.04H79.3156V3.04ZM91.8756 3.04V5.04C94.826 5.04 96.8519 5.77939 98.2189 7.00766L99.5556 5.52L100.892 4.03234C98.5793 1.95394 95.4853 1.04 91.8756 1.04V3.04ZM99.5556 5.52L98.2296 7.01718C99.5676 8.20235 100.356 9.97046 100.356 12.64H102.356H104.356C104.356 9.12287 103.277 6.14432 100.882 4.02282L99.5556 5.52ZM102.356 12.64H100.356C100.356 14.4256 99.9689 15.8174 99.2944 16.9084L100.996 17.96L102.697 19.0116C103.836 17.1693 104.356 15.0144 104.356 12.64H102.356ZM100.996 17.96L99.2944 16.9084C98.6122 18.012 97.6551 18.8411 96.3571 19.4063L97.1556 21.24L97.9542 23.0737C99.9629 22.1989 101.566 20.8413 102.697 19.0116L100.996 17.96ZM97.1556 21.24L95.3727 22.1461L100.333 31.9061L102.116 31L103.899 30.0939L98.9386 20.3339L97.1556 21.24ZM102.116 31V29H94.8356V31V33H102.116V31ZM94.8356 31L96.6196 30.0958L92.1796 21.3358L90.3956 22.24L88.6117 23.1442L93.0517 31.9042L94.8356 31ZM90.3956 22.24V20.24H86.3956V22.24V24.24H90.3956V22.24ZM86.3956 22.24H84.3956V31H86.3956H88.3956V22.24H86.3956ZM86.3956 31V29H79.3156V31V33H86.3956V31ZM79.3156 31H81.3156V3.04H79.3156H77.3156V31H79.3156ZM90.6356 16.28V18.28C92.2621 18.28 93.8144 17.9793 95.0511 17.1264L93.9156 15.48L92.7802 13.8336C92.4702 14.0474 91.8358 14.28 90.6356 14.28V16.28ZM93.9156 15.48L95.0886 17.0999C96.5686 16.0282 97.0756 14.3419 97.0756 12.64H95.0756H93.0756C93.0756 13.6048 92.8093 13.8118 92.7426 13.8601L93.9156 15.48ZM95.0756 12.64H97.0756C97.0756 10.937 96.5943 9.16397 95.0117 8.12708L93.9156 9.8L92.8196 11.4729C92.8317 11.4809 92.877 11.5064 92.9341 11.6462C93.0012 11.8105 93.0756 12.1193 93.0756 12.64H95.0756ZM93.9156 9.8L95.0781 8.17253C93.8487 7.29438 92.2722 7 90.6356 7V9V11C91.8791 11 92.4892 11.239 92.7532 11.4275L93.9156 9.8ZM90.6356 9V7H86.3956V9V11H90.6356V9ZM86.3956 9H84.3956V16.28H86.3956H88.3956V9H86.3956ZM86.3956 16.28V18.28H90.6356V16.28V14.28H86.3956V16.28ZM110.249 9H112.249V7H110.249V9ZM102.369 9H100.369V11H102.369V9ZM102.369 3.04V1.04H100.369V3.04H102.369ZM125.249 3.04H127.249V1.04H125.249V3.04ZM125.249 9V11H127.249V9H125.249ZM117.329 9V7H115.329V9H117.329ZM117.329 31V33H119.329V31H117.329ZM110.249 31H108.249V33H110.249V31ZM110.249 9V7H102.369V9V11H110.249V9ZM102.369 9H104.369V3.04H102.369H100.369V9H102.369ZM102.369 3.04V5.04H125.249V3.04V1.04H102.369V3.04ZM125.249 3.04H123.249V9H125.249H127.249V3.04H125.249ZM125.249 9V7H117.329V9V11H125.249V9ZM117.329 9H115.329V31H117.329H119.329V9H117.329ZM117.329 31V29H110.249V31V33H117.329V31ZM110.249 31H112.249V9H110.249H108.249V31H110.249ZM132.841 3.04V1.04H131.487L130.984 2.2963L132.841 3.04ZM139.801 3.04L141.658 2.29859L141.156 1.04H139.801V3.04ZM150.961 31V33H153.912L152.818 30.2586L150.961 31ZM143.721 31L141.857 31.7249L142.352 33H143.721V31ZM141.481 25.24L143.345 24.5151L142.849 23.24H141.481V25.24ZM131.161 25.24V23.24H129.792L129.297 24.5151L131.161 25.24ZM128.921 31V33H130.289L130.785 31.7249L128.921 31ZM121.641 31L119.784 30.2563L118.685 33H121.641V31ZM139.721 19.8V21.8H142.571L141.601 19.1197L139.721 19.8ZM136.321 10.4L138.201 9.71973L136.332 4.55038L134.442 9.71266L136.321 10.4ZM132.881 19.8L131.002 19.1127L130.019 21.8H132.881V19.8ZM132.841 3.04V5.04H139.801V3.04V1.04H132.841V3.04ZM139.801 3.04L137.943 3.7814L149.103 31.7414L150.961 31L152.818 30.2586L141.658 2.29859L139.801 3.04ZM150.961 31V29H143.721V31V33H150.961V31ZM143.721 31L145.585 30.2751L143.345 24.5151L141.481 25.24L139.617 25.9649L141.857 31.7249L143.721 31ZM141.481 25.24V23.24H131.161V25.24V27.24H141.481V25.24ZM131.161 25.24L129.297 24.5151L127.057 30.2751L128.921 31L130.785 31.7249L133.025 25.9649L131.161 25.24ZM128.921 31V29H121.641V31V33H128.921V31ZM121.641 31L123.497 31.7437L134.697 3.7837L132.841 3.04L130.984 2.2963L119.784 30.2563L121.641 31ZM139.721 19.8L141.601 19.1197L138.201 9.71973L136.321 10.4L134.44 11.0803L137.84 20.4803L139.721 19.8ZM136.321 10.4L134.442 9.71266L131.002 19.1127L132.881 19.8L134.759 20.4873L138.199 11.0873L136.321 10.4ZM132.881 19.8V21.8H139.721V19.8V17.8H132.881V19.8Z" fill="white" fill-opacity="0.9" mask="url(#path-1-outside-1_172_997)"/>
</svg>
